<svg preserveAspectRatio="none" width="100%" height="100%" overflow="visible" style="display: block;" viewBox="0 0 24 24" fill="none" xmlns="http://www.w3.org/2000/svg">
<g id="chevron_forward">
<mask id="mask0_0_4" style="mask-type:alpha" maskUnits="userSpaceOnUse" x="0" y="0" width="24" height="24">
<rect id="Bounding box" width="24" height="24" fill="#D9D9D9"/>
</mask>
<g mask="url(#mask0_0_4)">
<path id="chevron_forward_2" d="M12.6018 11.9969L8.70176 8.09688C8.51842 7.91354 8.42676 7.68021 8.42676 7.39688C8.42676 7.11354 8.51842 6.88021 8.70176 6.69688C8.88509 6.51354 9.11842 6.42188 9.40176 6.42188C9.68509 6.42188 9.91842 6.51354 10.1018 6.69688L14.7018 11.2969C14.8018 11.3969 14.8726 11.5052 14.9143 11.6219C14.9559 11.7385 14.9768 11.8635 14.9768 11.9969C14.9768 12.1302 14.9559 12.2552 14.9143 12.3719C14.8726 12.4885 14.8018 12.5969 14.7018 12.6969L10.1018 17.2969C9.91842 17.4802 9.68509 17.5719 9.40176 17.5719C9.11842 17.5719 8.88509 17.4802 8.70176 17.2969C8.51842 17.1135 8.42676 16.8802 8.42676 16.5969C8.42676 16.3135 8.51842 16.0802 8.70176 15.8969L12.6018 11.9969Z" fill="#670E10"/>
</g>
</g>
</svg>
