<svg preserveAspectRatio="none" width="100%" height="100%" overflow="visible" style="display: block;" viewBox="0 0 24 24" fill="none" xmlns="http://www.w3.org/2000/svg">
<g id="music_note_2">
<mask id="mask0_0_4" style="mask-type:alpha" maskUnits="userSpaceOnUse" x="0" y="0" width="24" height="24">
<rect id="Bounding box" width="24" height="24" fill="var(--fill-0, #D9D9D9)"/>
</mask>
<g mask="url(#mask0_0_4)">
<path id="music_note_2_2" d="M4.25781 18.9308C3.67013 18.3461 3.37629 17.6384 3.37629 16.8078C3.37629 15.9769 3.67013 15.2692 4.25781 14.6845C4.84532 14.1 5.55664 13.8078 6.39175 13.8078C6.77706 13.8078 7.14269 13.876 7.48863 14.0125C7.83474 14.149 8.13921 14.3538 8.40206 14.627V6.86925C8.40206 6.67058 8.46555 6.49458 8.59254 6.34125C8.71936 6.18808 8.88077 6.09483 9.07677 6.0615L18.5677 4.373C18.8176 4.33583 19.0383 4.39383 19.2296 4.547C19.4211 4.70033 19.5168 4.90325 19.5168 5.15575V14.8078C19.5168 15.6384 19.223 16.3461 18.6353 16.9308C18.0476 17.5154 17.3363 17.8077 16.5013 17.8077C15.6662 17.8077 14.9548 17.5154 14.3672 16.9308C13.7796 16.3461 13.4859 15.6384 13.4859 14.8078C13.4859 13.9769 13.7796 13.2692 14.3672 12.6845C14.9548 12.1 15.6662 11.8078 16.5013 11.8078C16.8867 11.8078 17.2523 11.876 17.5982 12.0125C17.9443 12.149 18.2488 12.3538 18.5117 12.627V8.098L9.40722 9.80775V16.8078C9.40722 17.6384 9.11338 18.3461 8.5257 18.9308C7.93818 19.5154 7.22687 19.8077 6.39175 19.8077C5.55664 19.8077 4.84532 19.5154 4.25781 18.9308Z" fill="var(--fill-0, white)"/>
</g>
</g>
</svg>
