<svg preserveAspectRatio="none" width="100%" height="100%" overflow="visible" style="display: block;" viewBox="0 0 20 22" fill="none" xmlns="http://www.w3.org/2000/svg">
<path id="Icon" d="M16.6667 22C15.7407 22 14.9537 21.6792 14.3056 21.0375C13.6574 20.3958 13.3333 19.6167 13.3333 18.7C13.3333 18.59 13.3611 18.3333 13.4167 17.93L5.61111 13.42C5.31481 13.695 4.97222 13.9104 4.58333 14.0663C4.19444 14.2221 3.77778 14.3 3.33333 14.3C2.40741 14.3 1.62037 13.9792 0.972222 13.3375C0.324074 12.6958 0 11.9167 0 11C0 10.0833 0.324074 9.30417 0.972222 8.6625C1.62037 8.02083 2.40741 7.7 3.33333 7.7C3.77778 7.7 4.19444 7.77792 4.58333 7.93375C4.97222 8.08958 5.31481 8.305 5.61111 8.58L13.4167 4.07C13.3796 3.94167 13.3565 3.81792 13.3472 3.69875C13.338 3.57958 13.3333 3.44667 13.3333 3.3C13.3333 2.38333 13.6574 1.60417 14.3056 0.9625C14.9537 0.320833 15.7407 0 16.6667 0C17.5926 0 18.3796 0.320833 19.0278 0.9625C19.6759 1.60417 20 2.38333 20 3.3C20 4.21667 19.6759 4.99583 19.0278 5.6375C18.3796 6.27917 17.5926 6.6 16.6667 6.6C16.2222 6.6 15.8056 6.52208 15.4167 6.36625C15.0278 6.21042 14.6852 5.995 14.3889 5.72L6.58333 10.23C6.62037 10.3583 6.64352 10.4821 6.65278 10.6013C6.66204 10.7204 6.66667 10.8533 6.66667 11C6.66667 11.1467 6.66204 11.2796 6.65278 11.3988C6.64352 11.5179 6.62037 11.6417 6.58333 11.77L14.3889 16.28C14.6852 16.005 15.0278 15.7896 15.4167 15.6338C15.8056 15.4779 16.2222 15.4 16.6667 15.4C17.5926 15.4 18.3796 15.7208 19.0278 16.3625C19.6759 17.0042 20 17.7833 20 18.7C20 19.6167 19.6759 20.3958 19.0278 21.0375C18.3796 21.6792 17.5926 22 16.6667 22ZM16.6667 19.8C16.9815 19.8 17.2454 19.6946 17.4583 19.4838C17.6713 19.2729 17.7778 19.0117 17.7778 18.7C17.7778 18.3883 17.6713 18.1271 17.4583 17.9163C17.2454 17.7054 16.9815 17.6 16.6667 17.6C16.3519 17.6 16.088 17.7054 15.875 17.9163C15.662 18.1271 15.5556 18.3883 15.5556 18.7C15.5556 19.0117 15.662 19.2729 15.875 19.4838C16.088 19.6946 16.3519 19.8 16.6667 19.8ZM3.33333 12.1C3.64815 12.1 3.91204 11.9946 4.125 11.7837C4.33796 11.5729 4.44444 11.3117 4.44444 11C4.44444 10.6883 4.33796 10.4271 4.125 10.2163C3.91204 10.0054 3.64815 9.9 3.33333 9.9C3.01852 9.9 2.75463 10.0054 2.54167 10.2163C2.3287 10.4271 2.22222 10.6883 2.22222 11C2.22222 11.3117 2.3287 11.5729 2.54167 11.7837C2.75463 11.9946 3.01852 12.1 3.33333 12.1ZM16.6667 4.4C16.9815 4.4 17.2454 4.29458 17.4583 4.08375C17.6713 3.87292 17.7778 3.61167 17.7778 3.3C17.7778 2.98833 17.6713 2.72708 17.4583 2.51625C17.2454 2.30542 16.9815 2.2 16.6667 2.2C16.3519 2.2 16.088 2.30542 15.875 2.51625C15.662 2.72708 15.5556 2.98833 15.5556 3.3C15.5556 3.61167 15.662 3.87292 15.875 4.08375C16.088 4.29458 16.3519 4.4 16.6667 4.4Z" fill="var(--fill-0, white)"/>
</svg>
