<svg preserveAspectRatio="none" width="100%" height="100%" overflow="visible" style="display: block;" viewBox="0 0 20 20" fill="none" xmlns="http://www.w3.org/2000/svg">
<path id="Icon" d="M10 20L8.55 18.5831C6.86667 16.9301 5.475 15.5041 4.375 14.3052C3.275 13.1063 2.4 12.03 1.75 11.0763C1.1 10.1226 0.645833 9.24614 0.3875 8.44687C0.129167 7.64759 0 6.83015 0 5.99455C0 4.28701 0.525 2.86104 1.575 1.71662C2.625 0.572207 3.93333 0 5.5 0C6.36667 0 7.19167 0.199818 7.975 0.599455C8.75833 0.999092 9.43333 1.56222 10 2.28883C10.5667 1.56222 11.2417 0.999092 12.025 0.599455C12.8083 0.199818 13.6333 0 14.5 0C16.0667 0 17.375 0.572207 18.425 1.71662C19.475 2.86104 20 4.28701 20 5.99455C20 6.83015 19.8708 7.64759 19.6125 8.44687C19.3542 9.24614 18.9 10.1226 18.25 11.0763C17.6 12.03 16.725 13.1063 15.625 14.3052C14.525 15.5041 13.1333 16.9301 11.45 18.5831L10 20ZM10 17.0572C11.6 15.495 12.9167 14.1553 13.95 13.0381C14.9833 11.921 15.8 10.9491 16.4 10.1226C17 9.29609 17.4167 8.5604 17.65 7.91553C17.8833 7.27066 18 6.63034 18 5.99455C18 4.90463 17.6667 3.99637 17 3.26975C16.3333 2.54314 15.5 2.17984 14.5 2.17984C13.7167 2.17984 12.9917 2.42053 12.325 2.90191C11.6583 3.38329 11.2 3.99637 10.95 4.74114H9.05C8.8 3.99637 8.34167 3.38329 7.675 2.90191C7.00833 2.42053 6.28333 2.17984 5.5 2.17984C4.5 2.17984 3.66667 2.54314 3 3.26975C2.33333 3.99637 2 4.90463 2 5.99455C2 6.63034 2.11667 7.27066 2.35 7.91553C2.58333 8.5604 3 9.29609 3.6 10.1226C4.2 10.9491 5.01667 11.921 6.05 13.0381C7.08333 14.1553 8.4 15.495 10 17.0572Z" fill="var(--fill-0, #FE4600)"/>
</svg>
