<svg preserveAspectRatio="none" width="100%" height="100%" overflow="visible" style="display: block;" viewBox="0 0 24 24" fill="none" xmlns="http://www.w3.org/2000/svg">
<g id="arrow_forward">
<mask id="mask0_0_25" style="mask-type:alpha" maskUnits="userSpaceOnUse" x="0" y="0" width="24" height="24">
<rect id="Bounding box" width="24" height="24" fill="var(--fill-0, #D9D9D9)"/>
</mask>
<g mask="url(#mask0_0_25)">
<path id="arrow_forward_2" d="M-21.2349 -25.1116H-31.3704C-31.6273 -25.1116 -31.8428 -25.196 -32.0166 -25.3648C-32.1904 -25.5337 -32.2773 -25.7429 -32.2773 -25.9925C-32.2773 -26.2421 -32.1904 -26.4513 -32.0166 -26.6201C-31.8428 -26.789 -31.6273 -26.8734 -31.3704 -26.8734H-21.2349L-25.6791 -31.1898C-25.8605 -31.366 -25.9474 -31.5715 -25.9398 -31.8064C-25.9323 -32.0413 -25.8378 -32.2469 -25.6564 -32.4231C-25.475 -32.5846 -25.2634 -32.669 -25.0215 -32.6763C-24.7797 -32.6837 -24.568 -32.5992 -24.3866 -32.4231L-18.4006 -26.6091C-18.3099 -26.521 -18.2457 -26.4256 -18.2079 -26.3228C-18.1701 -26.22 -18.1512 -26.1099 -18.1512 -25.9925C-18.1512 -25.875 -18.1701 -25.7649 -18.2079 -25.6621C-18.2457 -25.5594 -18.3099 -25.4639 -18.4006 -25.3758L-24.3866 -19.5619C-24.5529 -19.4004 -24.7608 -19.3197 -25.0102 -19.3197C-25.2596 -19.3197 -25.475 -19.4004 -25.6564 -19.5619C-25.8378 -19.7381 -25.9285 -19.9473 -25.9285 -20.1895C-25.9285 -20.4318 -25.8378 -20.641 -25.6564 -20.8172L-21.2349 -25.1116Z" fill="var(--fill-0, white)"/>
</g>
</g>
</svg>
