<svg preserveAspectRatio="none" width="100%" height="100%" overflow="visible" style="display: block;" viewBox="0 0 18 18" fill="none" xmlns="http://www.w3.org/2000/svg">
<g id="chevron_forward">
<mask id="mask0_0_10" style="mask-type:alpha" maskUnits="userSpaceOnUse" x="0" y="0" width="18" height="18">
<rect id="Bounding box" width="18" height="18" fill="var(--fill-0, #D9D9D9)"/>
</mask>
<g mask="url(#mask0_0_10)">
<path id="chevron_forward_2" d="M9.44883 8.99941L6.52383 6.07441C6.38633 5.93691 6.31758 5.76191 6.31758 5.54941C6.31758 5.33691 6.38633 5.16191 6.52383 5.02441C6.66133 4.88691 6.83633 4.81816 7.04883 4.81816C7.26133 4.81816 7.43633 4.88691 7.57383 5.02441L11.0238 8.47441C11.0988 8.54941 11.152 8.63066 11.1832 8.71816C11.2145 8.80566 11.2301 8.89941 11.2301 8.99941C11.2301 9.09941 11.2145 9.19316 11.1832 9.28066C11.152 9.36816 11.0988 9.44941 11.0238 9.52441L7.57383 12.9744C7.43633 13.1119 7.26133 13.1807 7.04883 13.1807C6.83633 13.1807 6.66133 13.1119 6.52383 12.9744C6.38633 12.8369 6.31758 12.6619 6.31758 12.4494C6.31758 12.2369 6.38633 12.0619 6.52383 11.9244L9.44883 8.99941Z" fill="var(--fill-0, #670E10)"/>
</g>
</g>
</svg>
