<svg preserveAspectRatio="none" width="100%" height="100%" overflow="visible" style="display: block;" viewBox="0 0 12 12" fill="none" xmlns="http://www.w3.org/2000/svg">
<path id="arrow_forward" d="M9.38042 6.79654H0.770465C0.552167 6.79654 0.369181 6.7207 0.221509 6.56902C0.0738363 6.41733 0 6.22937 0 6.00514C0 5.78091 0.0738363 5.59296 0.221509 5.44127C0.369181 5.28959 0.552167 5.21374 0.770465 5.21374H9.38042L5.60514 1.33588C5.45104 1.1776 5.37721 0.992943 5.38363 0.781903C5.39005 0.570863 5.47031 0.386203 5.6244 0.227923C5.77849 0.0828332 5.95827 0.0069907 6.16372 0.0003957C6.36918 -0.0061993 6.54896 0.0696432 6.70305 0.227923L11.7881 5.45116C11.8652 5.5303 11.9197 5.61604 11.9518 5.70837C11.9839 5.8007 12 5.89962 12 6.00514C12 6.11066 11.9839 6.20959 11.9518 6.30192C11.9197 6.39425 11.8652 6.47998 11.7881 6.55912L6.70305 11.7824C6.5618 11.9275 6.38523 12 6.17335 12C5.96148 12 5.77849 11.9275 5.6244 11.7824C5.47031 11.6241 5.39326 11.4361 5.39326 11.2185C5.39326 11.0009 5.47031 10.8129 5.6244 10.6546L9.38042 6.79654Z" fill="var(--fill-0, #C4C4C4)"/>
</svg>
