<svg preserveAspectRatio="none" width="100%" height="100%" overflow="visible" style="display: block;" viewBox="0 0 19 18" fill="none" xmlns="http://www.w3.org/2000/svg">
<g id="Filter" clip-path="url(#clip0_0_32)">
<path id="Vector" d="M0.790402 3.56269H2.9564C3.12632 4.15499 3.49725 4.67787 4.01195 5.05064C4.52666 5.42342 5.15654 5.62539 5.80442 5.62539C6.45231 5.62539 7.08219 5.42342 7.59689 5.05064C8.1116 4.67787 8.48252 4.15499 8.65244 3.56269H18.2071C18.417 3.56269 18.6184 3.48368 18.7669 3.34302C18.9153 3.20237 18.9987 3.01161 18.9987 2.81269C18.9987 2.61378 18.9153 2.42302 18.7669 2.28236C18.6184 2.14171 18.417 2.06269 18.2071 2.06269H8.65244C8.48252 1.4704 8.1116 0.947524 7.59689 0.574746C7.08219 0.201968 6.45231 0 5.80442 0C5.15654 0 4.52666 0.201968 4.01195 0.574746C3.49725 0.947524 3.12632 1.4704 2.9564 2.06269H0.790402C0.580439 2.06269 0.379075 2.14171 0.230609 2.28236C0.0821424 2.42302 -0.00126511 2.61378 -0.00126511 2.81269C-0.00126511 3.01161 0.0821424 3.20237 0.230609 3.34302C0.379075 3.48368 0.580439 3.56269 0.790402 3.56269ZM5.80403 1.50019C6.07804 1.50019 6.34589 1.57717 6.57372 1.72139C6.80155 1.86561 6.97913 2.07059 7.08398 2.31042C7.18884 2.55025 7.21628 2.81415 7.16282 3.06875C7.10937 3.32335 6.97742 3.55722 6.78366 3.74077C6.58991 3.92433 6.34305 4.04933 6.07431 4.09998C5.80556 4.15062 5.527 4.12463 5.27385 4.02529C5.0207 3.92595 4.80433 3.75772 4.65209 3.54188C4.49986 3.32604 4.41861 3.07228 4.41861 2.81269C4.41903 2.46472 4.56513 2.13111 4.82485 1.88506C5.08458 1.639 5.43672 1.50059 5.80403 1.50019Z" fill="var(--fill-0, #831317)"/>
<path id="Vector_2" d="M18.207 8.2499H16.041C15.8714 7.65747 15.5006 7.1344 14.9859 6.76147C14.4713 6.38854 13.8413 6.18648 13.1934 6.18648C12.5454 6.18648 11.9155 6.38854 11.4008 6.76147C10.8862 7.1344 10.5154 7.65747 10.3458 8.2499H0.790345C0.580382 8.2499 0.379018 8.32892 0.230552 8.46957C0.0820857 8.61022 -0.00132185 8.80099 -0.00132185 8.9999C-0.00132185 9.19881 0.0820857 9.38958 0.230552 9.53023C0.379018 9.67088 0.580382 9.7499 0.790345 9.7499H10.3458C10.5154 10.3423 10.8862 10.8654 11.4008 11.2383C11.9155 11.6113 12.5454 11.8133 13.1934 11.8133C13.8413 11.8133 14.4713 11.6113 14.9859 11.2383C15.5006 10.8654 15.8714 10.3423 16.041 9.7499H18.207C18.417 9.7499 18.6183 9.67088 18.7668 9.53023C18.9153 9.38958 18.9987 9.19881 18.9987 8.9999C18.9987 8.80099 18.9153 8.61022 18.7668 8.46957C18.6183 8.32892 18.417 8.2499 18.207 8.2499ZM13.1934 10.3124C12.9194 10.3124 12.6515 10.2354 12.4237 10.0912C12.1959 9.94699 12.0183 9.742 11.9134 9.50217C11.8086 9.26235 11.7811 8.99845 11.8346 8.74385C11.888 8.48925 12.02 8.25538 12.2137 8.07182C12.4075 7.88827 12.6544 7.76326 12.9231 7.71262C13.1919 7.66198 13.4704 7.68797 13.7236 7.78731C13.9767 7.88665 14.1931 8.05488 14.3453 8.27072C14.4976 8.48656 14.5788 8.74031 14.5788 8.9999C14.5784 9.34788 14.4323 9.68149 14.1726 9.92754C13.9128 10.1736 13.5607 10.312 13.1934 10.3124Z" fill="var(--fill-0, #831317)"/>
<path id="Vector_3" d="M18.207 14.4373H8.65239C8.48247 13.845 8.11154 13.3222 7.59684 12.9494C7.08213 12.5766 6.45225 12.3746 5.80437 12.3746C5.15648 12.3746 4.5266 12.5766 4.01189 12.9494C3.49719 13.3222 3.12627 13.845 2.95634 14.4373H0.790345C0.580382 14.4373 0.379018 14.5163 0.230552 14.657C0.0820857 14.7977 -0.00132185 14.9884 -0.00132185 15.1873C-0.00132185 15.3862 0.0820857 15.577 0.230552 15.7177C0.379018 15.8583 0.580382 15.9373 0.790345 15.9373H2.95634C3.12627 16.5296 3.49719 17.0525 4.01189 17.4253C4.5266 17.7981 5.15648 18 5.80437 18C6.45225 18 7.08213 17.7981 7.59684 17.4253C8.11154 17.0525 8.48247 16.5296 8.65239 15.9373H18.207C18.417 15.9373 18.6183 15.8583 18.7668 15.7177C18.9153 15.577 18.9987 15.3862 18.9987 15.1873C18.9987 14.9884 18.9153 14.7977 18.7668 14.657C18.6183 14.5163 18.417 14.4373 18.207 14.4373ZM5.80397 16.4998C5.52996 16.4998 5.2621 16.4229 5.03427 16.2786C4.80644 16.1344 4.62887 15.9294 4.52401 15.6896C4.41915 15.4498 4.39172 15.1859 4.44517 14.9313C4.49863 14.6767 4.63058 14.4428 4.82433 14.2593C5.01809 14.0757 5.26494 13.9507 5.53369 13.9001C5.80243 13.8494 6.08099 13.8754 6.33415 13.9747C6.5873 14.0741 6.80367 14.2423 6.9559 14.4581C7.10813 14.674 7.18939 14.9277 7.18939 15.1873C7.18876 15.5352 7.04259 15.8687 6.78291 16.1148C6.52323 16.3608 6.17121 16.4992 5.80397 16.4998Z" fill="var(--fill-0, #831317)"/>
</g>
<defs>
<clipPath id="clip0_0_32">
<rect width="19" height="18" fill="white"/>
</clipPath>
</defs>
</svg>
