<svg preserveAspectRatio="xMidYMid meet" width="100%" height="100%" overflow="visible" style="display: block;" viewBox="-2 -2 23.0077 21.7262" fill="none" xmlns="http://www.w3.org/2000/svg">
<path id="Vector" d="M13.858 0C12.9665 0.013866 12.0945 0.262717 11.33 0.721423C10.5655 1.18013 9.93558 1.83245 9.50383 2.6125C9.07209 1.83245 8.44215 1.18013 7.67764 0.721423C6.91314 0.262717 6.04112 0.013866 5.14967 0C3.72858 0.0617426 2.38968 0.683409 1.42549 1.72918C0.461305 2.77496 -0.0498033 4.15983 0.00383254 5.58125C0.00383254 10.9448 8.67733 17.1396 9.04625 17.4024L9.50383 17.7262L9.96142 17.4024C10.3303 17.1412 19.0038 10.9448 19.0038 5.58125C19.0575 4.15983 18.5464 2.77496 17.5822 1.72918C16.618 0.683409 15.2791 0.0617426 13.858 0Z" stroke="#831317" stroke-width="1.4" stroke-linejoin="round" stroke-linecap="round"/>
</svg>
