<svg preserveAspectRatio="none" width="100%" height="100%" overflow="visible" style="display: block;" viewBox="0 0 24 24" fill="none" xmlns="http://www.w3.org/2000/svg">
<g id="chevron_forward">
<mask id="mask0_0_5" style="mask-type:alpha" maskUnits="userSpaceOnUse" x="0" y="0" width="24" height="24">
<rect id="Bounding box" width="24" height="24" fill="var(--fill-0, #D9D9D9)"/>
</mask>
<g mask="url(#mask0_0_5)">
<path id="chevron_forward_2" d="M12.6021 11.9995L8.70208 8.09948C8.51875 7.91615 8.42708 7.68281 8.42708 7.39948C8.42708 7.11615 8.51875 6.88281 8.70208 6.69948C8.88542 6.51615 9.11875 6.42448 9.40208 6.42448C9.68542 6.42448 9.91875 6.51615 10.1021 6.69948L14.7021 11.2995C14.8021 11.3995 14.8729 11.5078 14.9146 11.6245C14.9563 11.7411 14.9771 11.8661 14.9771 11.9995C14.9771 12.1328 14.9563 12.2578 14.9146 12.3745C14.8729 12.4911 14.8021 12.5995 14.7021 12.6995L10.1021 17.2995C9.91875 17.4828 9.68542 17.5745 9.40208 17.5745C9.11875 17.5745 8.88542 17.4828 8.70208 17.2995C8.51875 17.1161 8.42708 16.8828 8.42708 16.5995C8.42708 16.3161 8.51875 16.0828 8.70208 15.8995L12.6021 11.9995Z" fill="var(--fill-0, #670E10)"/>
</g>
</g>
</svg>
