<svg width="102" height="20" viewBox="0 0 102 20" fill="none" xmlns="http://www.w3.org/2000/svg">
<path id="Vector" d="M30.7539 0.0519468C31.1799 -0.0454098 33.2733 0.0239342 33.8479 0.0239967L39.7915 0.0274358C41.0633 0.0288114 44.4238 -0.0398445 45.5022 0.527412C48.5113 2.11019 49.476 13.8584 50.9094 15.1261C51.8481 15.3115 53.4085 10.5404 53.6011 9.72282C52.5636 9.1098 51.9451 8.09208 51.5823 6.96945C51.0926 5.45696 50.9519 3.47343 51.7018 2.0184C52.022 1.39768 52.5211 0.885262 53.1996 0.673541C53.8244 0.47864 54.5993 0.526036 55.1803 0.836114C55.72 1.12399 56.0289 1.63122 56.214 2.19829C57.0327 4.70274 55.311 8.40291 55.5292 9.11849C56.1127 9.77929 57.5505 9.05884 58.119 8.62132C58.2741 7.99804 58.3123 7.13928 58.6469 6.60197C59.3436 5.52155 61.3211 5.69581 62.2729 6.28583C63.1579 6.81338 62.9252 7.96709 62.842 8.84317C62.6582 10.7216 62.3574 12.59 62.1872 14.4691C62.1616 14.7581 62.1435 15.0766 62.398 15.2426C63.3086 15.2227 65.156 11.8166 65.2849 10.8661C65.4906 9.26649 65.6933 7.83572 66.1535 6.29021C66.6038 4.7799 70.2399 5.32815 70.3831 6.07674C70.6983 7.72067 68.9122 14.8319 69.3506 15.9612L69.4638 15.9907C69.8822 15.7966 70.2656 13.0762 70.4219 12.4863C70.8885 10.7273 71.1036 8.75551 71.9754 7.13409C72.5076 6.14539 73.417 5.66205 74.497 5.95818C76.3889 6.37418 76.534 8.21558 77.1181 9.71013C77.467 10.6027 78.2626 14.4745 79.5421 14.2778C80.2945 14.1622 80.0462 13.3562 79.8892 12.8269C79.0055 9.75659 81.0875 6.43571 84.0613 5.50223C85.2258 5.13662 87.3403 4.84655 87.7587 6.38588C88.1971 7.99929 86.8306 9.87883 85.823 11.0017C85.4028 11.4703 84.6085 12.2386 84.3377 12.7409C84.4497 13.7617 84.93 15.172 86.0394 15.4723C88.2821 16.0797 90.521 13.1334 91.5111 11.4886C91.7956 11.0153 92.0814 9.94336 92.2403 9.40355C91.4366 9.21103 90.7368 8.87844 90.2315 8.19051C89.4103 7.07106 89.6974 5.14481 90.8431 4.33958C91.2897 4.02668 91.8425 3.90557 92.3785 4.00317C94.3679 4.3579 93.6568 6.68808 93.396 8.03587C94.8563 7.88087 95.5361 7.16667 96.9145 7.484C97.5243 7.62444 98.2691 8.12848 98.3292 8.74876C98.5099 10.635 97.1559 13.2766 97.9683 15.1016C98.0546 15.2507 98.1985 15.3618 98.363 15.3896C99.9152 15.652 100.659 11.2103 101.765 11.4337C101.911 11.5628 101.95 11.5949 102 11.7871C101.826 12.8971 100.366 15.5947 99.7307 16.5547C99.4336 16.925 99.1941 17.199 98.8114 17.487C97.3648 18.5743 95.266 17.7785 94.3366 16.3698C92.9676 14.2949 93.7494 11.5542 94.1684 9.29275C93.7813 9.34278 93.3929 9.38455 93.0039 9.41794C92.3653 12.1072 91.6555 14.4406 89.3778 16.2208C87.476 17.7071 84.6173 17.8631 82.5384 16.653C81.7292 16.1819 81.1882 15.5306 80.6266 14.803C79.6003 15.8428 77.9467 17.0999 76.4558 17.2212C74.4076 17.388 73.8816 14.2099 73.3532 12.7933C73.1193 12.1662 72.8935 10.7016 72.1511 10.757C70.9297 11.4312 71.2312 17.3321 69.1623 17.479C65.1498 17.764 65.8727 15.8365 65.4487 13.0174C64.7739 14.6199 62.9878 17.9291 61.0021 17.9066C59.8883 17.894 58.1834 16.7632 57.9639 15.621C57.5874 13.6614 58.0702 11.5569 58.1178 9.56056C57.0327 10.1724 56.3398 10.3549 55.0852 10.1344C54.2478 12.374 52.7356 17.3823 50.6536 18.7001C49.98 19.1185 49.1685 19.2543 48.3953 19.0782C46.6233 18.6618 46.3937 16.7669 45.9764 15.2463C45.5536 13.667 45.1217 12.0901 44.6808 10.5159C44.1764 8.72387 43.983 7.89131 42.9963 6.28277C41.787 8.40391 40.7084 11.0008 39.6105 13.2182C37.945 16.5817 37.5039 19.0861 33.121 19.1373C29.6648 19.1777 26.7563 18.2728 24.2113 15.8794C22.1838 13.8788 20.0118 12.9009 17.1521 13.0318C13.4523 13.0566 9.73155 12.9303 6.02924 13.0239C5.35424 13.069 4.73409 13.3605 4.05116 13.3492C2.75489 13.3276 1.46537 12.9378 0.188428 12.8307C-0.0163285 11.9398 -0.124772 6.90255 0.239211 6.27007C0.504381 6.03365 2.78259 5.52192 3.12187 5.58007C7.09404 6.26038 11.0744 6.04297 15.0846 5.94024C16.8375 5.89534 18.2316 6.18872 20.0178 5.72658C22.3521 5.12274 23.6991 3.70823 25.4205 2.15634C26.8368 0.938098 28.8886 0.242345 30.7539 0.0519468ZM84.2107 11.8427L84.788 11.1937C85.3246 10.5745 85.9794 9.84713 86.3327 9.11036C86.7674 8.20514 87.9037 6.08205 85.9869 6.2268C84.2483 7.3415 84.1682 10.0175 84.2107 11.8427ZM53.8482 7.88987C54.3472 7.40609 54.9295 2.12607 53.451 2.11963C53.4341 2.11957 53.4173 2.11957 53.3997 2.11976C52.1871 3.45136 53.017 6.52356 53.8482 7.88987ZM92.6311 7.6275C92.745 6.97152 93.2197 5.25724 92.1834 5.24974C91.7331 6.08593 91.8394 7.04768 92.6311 7.6275Z" fill="white"/>
<path id="Vector_2" d="M60.4087 1.06299C63.7324 1.22572 63.314 4.52781 60.6983 4.86327C59.5674 4.85221 58.4141 4.42618 58.2377 3.13779C58.1745 2.70347 58.289 2.26182 58.5554 1.91492C59.017 1.31325 59.7101 1.15539 60.4087 1.06299Z" fill="white"/>
</svg>
