<svg preserveAspectRatio="none" width="100%" height="100%" overflow="visible" style="display: block;" viewBox="0 0 24 24" fill="none" xmlns="http://www.w3.org/2000/svg">
<g id="chevron_forward">
<mask id="mask0_0_11" style="mask-type:alpha" maskUnits="userSpaceOnUse" x="0" y="0" width="24" height="24">
<rect id="Bounding box" width="24" height="24" fill="#D9D9D9"/>
</mask>
<g mask="url(#mask0_0_11)">
<path id="chevron_forward_2" d="M12.6047 11.9969L8.70469 8.09688C8.52135 7.91354 8.42969 7.68021 8.42969 7.39688C8.42969 7.11354 8.52135 6.88021 8.70469 6.69688C8.88802 6.51354 9.12135 6.42188 9.40469 6.42188C9.68802 6.42188 9.92135 6.51354 10.1047 6.69688L14.7047 11.2969C14.8047 11.3969 14.8755 11.5052 14.9172 11.6219C14.9589 11.7385 14.9797 11.8635 14.9797 11.9969C14.9797 12.1302 14.9589 12.2552 14.9172 12.3719C14.8755 12.4885 14.8047 12.5969 14.7047 12.6969L10.1047 17.2969C9.92135 17.4802 9.68802 17.5719 9.40469 17.5719C9.12135 17.5719 8.88802 17.4802 8.70469 17.2969C8.52135 17.1135 8.42969 16.8802 8.42969 16.5969C8.42969 16.3135 8.52135 16.0802 8.70469 15.8969L12.6047 11.9969Z" fill="#831317"/>
</g>
</g>
</svg>
