<svg preserveAspectRatio="none" overflow="visible" style="display: block;" width="38" height="39" viewBox="0 0 38 39" fill="none" xmlns="http://www.w3.org/2000/svg">
<g id="button2">
<path id="icon" d="M20.3906 20.9443L20.9736 21.5596L26.6221 27.5215L26.5996 27.5459L21.0264 21.6621L20.376 20.9766L20.2227 21.1055C20.287 21.0432 20.3505 20.9791 20.4131 20.9131C20.4156 20.9104 20.4174 20.907 20.4199 20.9043L20.3906 20.9443ZM11.0059 17.1523C11.0678 18.5963 11.595 19.8661 12.5869 20.9131C13.647 22.032 14.9699 22.6113 16.5 22.6113C17.6798 22.6113 18.7355 22.2653 19.6436 21.5947C19.2378 21.9352 18.7665 22.2112 18.2207 22.418C17.6901 22.619 17.119 22.7227 16.5 22.7227C14.9601 22.7227 13.6843 22.1725 12.6133 21.042C11.6072 19.98 11.0692 18.7071 11.0059 17.1719V17.1523ZM16.5 11C18.0398 11 19.3157 11.5493 20.3867 12.6797C21.46 13.8126 22 15.186 22 16.8613C22 15.2965 21.4711 13.9254 20.4131 12.8086C19.3531 11.6898 18.03 11.1113 16.5 11.1113C14.97 11.1113 13.6469 11.6898 12.5869 12.8086C11.5289 13.9254 11 15.2965 11 16.8613C11 15.186 11.54 13.8126 12.6133 12.6797C13.6843 11.5493 14.9602 11 16.5 11Z" fill="#851317" stroke="#851317" stroke-width="2"/>
</g>
</svg>
