<svg width="34" height="40" viewBox="0 0 34 40" fill="none" xmlns="http://www.w3.org/2000/svg">
<path d="M23.75 15.5C23.75 13.7098 23.0388 11.9929 21.773 10.727C20.5071 9.46116 18.7902 8.75 17 8.75C15.2098 8.75 13.4929 9.46116 12.227 10.727C10.9612 11.9929 10.25 13.7098 10.25 15.5C10.25 23.375 6.875 25.625 6.875 25.625H27.125C27.125 25.625 23.75 23.375 23.75 15.5Z" stroke="white" stroke-width="2" stroke-linecap="round" stroke-linejoin="round"/>
<path d="M18.9472 30.125C18.7494 30.466 18.4655 30.749 18.1239 30.9457C17.7824 31.1425 17.3951 31.246 17.0009 31.246C16.6068 31.246 16.2195 31.1425 15.8779 30.9457C15.5364 30.749 15.2525 30.466 15.0547 30.125" stroke="white" stroke-width="2" stroke-linecap="round" stroke-linejoin="round"/>
<circle cx="22.5" cy="10.5" r="3.25" fill="#831317" stroke="#831317" stroke-width="0.5"/>
</svg>
