<svg width="24" height="24" viewBox="0 0 24 24" fill="none" xmlns="http://www.w3.org/2000/svg">
<mask id="mask0_600_69" style="mask-type:alpha" maskUnits="userSpaceOnUse" x="0" y="0" width="24" height="24">
<rect width="24" height="24" fill="#D9D9D9"/>
</mask>
<g mask="url(#mask0_600_69)">
<path d="M6.9994 18V14L2.0244 6.55C1.79107 6.21667 1.7744 5.875 1.9744 5.525C2.1744 5.175 2.4744 5 2.8744 5H13.1244C13.5244 5 13.8244 5.175 14.0244 5.525C14.2244 5.875 14.2077 6.21667 13.9744 6.55L8.9994 14V18H9.9994C10.2827 18 10.5202 18.0958 10.7119 18.2875C10.9036 18.4792 10.9994 18.7167 10.9994 19C10.9994 19.2833 10.9036 19.5208 10.7119 19.7125C10.5202 19.9042 10.2827 20 9.9994 20H5.9994C5.71607 20 5.47857 19.9042 5.2869 19.7125C5.09523 19.5208 4.9994 19.2833 4.9994 19C4.9994 18.7167 5.09523 18.4792 5.2869 18.2875C5.47857 18.0958 5.71607 18 5.9994 18H6.9994ZM5.8994 9H10.0994L11.4994 7H4.4994L5.8994 9ZM13.8744 19.125C13.2911 18.5417 12.9994 17.8333 12.9994 17C12.9994 16.1667 13.2911 15.4583 13.8744 14.875C14.4577 14.2917 15.1661 14 15.9994 14C16.1827 14 16.3577 14.0125 16.5244 14.0375C16.6911 14.0625 16.8494 14.1167 16.9994 14.2V6C16.9994 5.71667 17.0952 5.47917 17.2869 5.2875C17.4786 5.09583 17.7161 5 17.9994 5H20.4994C20.9161 5 21.2702 5.14583 21.5619 5.4375C21.8536 5.72917 21.9994 6.08333 21.9994 6.5C21.9994 6.91667 21.8536 7.27083 21.5619 7.5625C21.2702 7.85417 20.9161 8 20.4994 8H18.9994V17C18.9994 17.8333 18.7077 18.5417 18.1244 19.125C17.5411 19.7083 16.8327 20 15.9994 20C15.1661 20 14.4577 19.7083 13.8744 19.125Z" fill="#831317"/>
</g>
</svg>
