<svg width="19" height="19" viewBox="0 0 19 19" fill="none" xmlns="http://www.w3.org/2000/svg">
<g clip-path="url(#clip0_610_182)">
<path d="M13.8541 0.725586C12.9626 0.739452 12.0906 0.988303 11.3261 1.44701C10.5616 1.90571 9.93167 2.55803 9.49993 3.33809C9.06818 2.55803 8.43825 1.90571 7.67374 1.44701C6.90923 0.988303 6.03722 0.739452 5.14576 0.725586C3.72467 0.787329 2.38578 1.409 1.42159 2.45477C0.457398 3.50054 -0.0537095 4.88542 -7.371e-05 6.30684C-7.371e-05 11.6704 8.67343 17.8652 9.04234 18.128L9.49993 18.4518L9.95751 18.128C10.3264 17.8668 18.9999 11.6704 18.9999 6.30684C19.0536 4.88542 18.5425 3.50054 17.5783 2.45477C16.6141 1.409 15.2752 0.787329 13.8541 0.725586Z" fill="#831317"/>
</g>
<defs>
<clipPath id="clip0_610_182">
<rect width="19" height="19" fill="white"/>
</clipPath>
</defs>
</svg>
