<svg width="18" height="19" viewBox="0 0 18 19" fill="none" xmlns="http://www.w3.org/2000/svg">
<g clip-path="url(#clip0_610_161)">
<path d="M5.25 0H3C2.20435 0 1.44129 0.33363 0.87868 0.927495C0.316071 1.52136 0 2.32681 0 3.16667L0 5.54167C0 6.38152 0.316071 7.18697 0.87868 7.78084C1.44129 8.3747 2.20435 8.70833 3 8.70833H5.25C6.04565 8.70833 6.80871 8.3747 7.37132 7.78084C7.93393 7.18697 8.25 6.38152 8.25 5.54167V3.16667C8.25 2.32681 7.93393 1.52136 7.37132 0.927495C6.80871 0.33363 6.04565 0 5.25 0ZM6.75 5.54167C6.75 5.96159 6.59197 6.36432 6.31066 6.66125C6.02936 6.95819 5.64783 7.125 5.25 7.125H3C2.60218 7.125 2.22064 6.95819 1.93934 6.66125C1.65804 6.36432 1.5 5.96159 1.5 5.54167V3.16667C1.5 2.74674 1.65804 2.34401 1.93934 2.04708C2.22064 1.75015 2.60218 1.58333 3 1.58333H5.25C5.64783 1.58333 6.02936 1.75015 6.31066 2.04708C6.59197 2.34401 6.75 2.74674 6.75 3.16667V5.54167Z" fill="#831317"/>
<path d="M15 0H12.75C11.9544 0 11.1913 0.33363 10.6287 0.927495C10.0661 1.52136 9.75 2.32681 9.75 3.16667V5.54167C9.75 6.38152 10.0661 7.18697 10.6287 7.78084C11.1913 8.3747 11.9544 8.70833 12.75 8.70833H15C15.7957 8.70833 16.5587 8.3747 17.1213 7.78084C17.6839 7.18697 18 6.38152 18 5.54167V3.16667C18 2.32681 17.6839 1.52136 17.1213 0.927495C16.5587 0.33363 15.7957 0 15 0ZM16.5 5.54167C16.5 5.96159 16.342 6.36432 16.0607 6.66125C15.7794 6.95819 15.3978 7.125 15 7.125H12.75C12.3522 7.125 11.9706 6.95819 11.6893 6.66125C11.408 6.36432 11.25 5.96159 11.25 5.54167V3.16667C11.25 2.74674 11.408 2.34401 11.6893 2.04708C11.9706 1.75015 12.3522 1.58333 12.75 1.58333H15C15.3978 1.58333 15.7794 1.75015 16.0607 2.04708C16.342 2.34401 16.5 2.74674 16.5 3.16667V5.54167Z" fill="#831317"/>
<path d="M5.25 10.292H3C2.20435 10.292 1.44129 10.6256 0.87868 11.2195C0.316071 11.8134 0 12.6188 0 13.4587L0 15.8337C0 16.6735 0.316071 17.479 0.87868 18.0728C1.44129 18.6667 2.20435 19.0003 3 19.0003H5.25C6.04565 19.0003 6.80871 18.6667 7.37132 18.0728C7.93393 17.479 8.25 16.6735 8.25 15.8337V13.4587C8.25 12.6188 7.93393 11.8134 7.37132 11.2195C6.80871 10.6256 6.04565 10.292 5.25 10.292ZM6.75 15.8337C6.75 16.2536 6.59197 16.6563 6.31066 16.9532C6.02936 17.2502 5.64783 17.417 5.25 17.417H3C2.60218 17.417 2.22064 17.2502 1.93934 16.9532C1.65804 16.6563 1.5 16.2536 1.5 15.8337V13.4587C1.5 13.0387 1.65804 12.636 1.93934 12.3391C2.22064 12.0421 2.60218 11.8753 3 11.8753H5.25C5.64783 11.8753 6.02936 12.0421 6.31066 12.3391C6.59197 12.636 6.75 13.0387 6.75 13.4587V15.8337Z" fill="#831317"/>
<path d="M15 10.292H12.75C11.9544 10.292 11.1913 10.6256 10.6287 11.2195C10.0661 11.8134 9.75 12.6188 9.75 13.4587V15.8337C9.75 16.6735 10.0661 17.479 10.6287 18.0728C11.1913 18.6667 11.9544 19.0003 12.75 19.0003H15C15.7957 19.0003 16.5587 18.6667 17.1213 18.0728C17.6839 17.479 18 16.6735 18 15.8337V13.4587C18 12.6188 17.6839 11.8134 17.1213 11.2195C16.5587 10.6256 15.7957 10.292 15 10.292ZM16.5 15.8337C16.5 16.2536 16.342 16.6563 16.0607 16.9532C15.7794 17.2502 15.3978 17.417 15 17.417H12.75C12.3522 17.417 11.9706 17.2502 11.6893 16.9532C11.408 16.6563 11.25 16.2536 11.25 15.8337V13.4587C11.25 13.0387 11.408 12.636 11.6893 12.3391C11.9706 12.0421 12.3522 11.8753 12.75 11.8753H15C15.3978 11.8753 15.7794 12.0421 16.0607 12.3391C16.342 12.636 16.5 13.0387 16.5 13.4587V15.8337Z" fill="#831317"/>
</g>
<defs>
<clipPath id="clip0_610_161">
<rect width="18" height="19" fill="white"/>
</clipPath>
</defs>
</svg>
