<svg width="16" height="16" viewBox="0 0 16 16" fill="none" xmlns="http://www.w3.org/2000/svg">
<path d="M8.21875 0.0126953C8.48887 0.00404056 8.72551 0.103782 8.92871 0.3125L15.709 7.27734C15.8104 7.38158 15.8818 7.49426 15.9238 7.61523C15.9661 7.73691 15.9873 7.86744 15.9873 8.00684C15.9873 8.14624 15.9661 8.27675 15.9238 8.39844C15.8818 8.51942 15.8104 8.63209 15.709 8.73633L8.92871 15.7012C8.74291 15.892 8.51061 15.9872 8.23145 15.9873C7.98702 15.9873 7.77196 15.914 7.58594 15.7676L7.50781 15.7012C7.30468 15.4925 7.20313 15.2448 7.20312 14.958C7.20312 14.6712 7.30469 14.4236 7.50781 14.2148L12.5166 9.07031L12.5371 9.0498H1.02734C0.739635 9.0498 0.499114 8.94961 0.304688 8.75C0.110207 8.55024 0.0126953 8.30277 0.0126953 8.00684C0.0127001 7.71092 0.110212 7.46343 0.304688 7.26367C0.499111 7.06408 0.739645 6.96387 1.02734 6.96387H12.5371L12.5166 6.94336L7.48242 1.77246C7.27924 1.56374 7.18199 1.32076 7.19043 1.04297C7.19888 0.765127 7.30383 0.52128 7.50684 0.3125L7.50781 0.313477C7.71112 0.122044 7.94795 0.0213878 8.21875 0.0126953Z" fill="#831317" stroke="#831317" stroke-width="0.025"/>
</svg>
