<svg width="18" height="19" viewBox="0 0 18 19" fill="none" xmlns="http://www.w3.org/2000/svg">
<path d="M3 4.74967H4.5V14.2497H3V4.74967ZM6 14.2497H7.5V4.74967H6V14.2497ZM15 4.74967H13.5V14.2497H15V4.74967ZM8.25 14.2497H10.5V4.74967H8.25V14.2497ZM1.5 15.0413V12.6663H0V15.0413C0 16.3508 1.0095 17.4163 2.25 17.4163H4.5V15.833H2.25C1.83675 15.833 1.5 15.4776 1.5 15.0413ZM16.5 15.0413C16.5 15.4776 16.1632 15.833 15.75 15.833H13.5V17.4163H15.75C16.9905 17.4163 18 16.3508 18 15.0413V12.6663H16.5V15.0413ZM15.75 1.58301H13.5V3.16634H15.75C16.1632 3.16634 16.5 3.5218 16.5 3.95801V6.33301H18V3.95801C18 2.64859 16.9905 1.58301 15.75 1.58301ZM0 3.95801V6.33301H1.5V3.95801C1.5 3.5218 1.83675 3.16634 2.25 3.16634H4.5V1.58301H2.25C1.0095 1.58301 0 2.64859 0 3.95801Z" fill="#831317"/>
<path d="M12 4.75H11.25V14.25H12V4.75Z" fill="#831317"/>
</svg>
