<svg width="19" height="18" viewBox="0 0 19 18" fill="none" xmlns="http://www.w3.org/2000/svg">
<g clip-path="url(#clip0_610_171)">
<path d="M15.0417 3H14.6395L12.9105 0.876C12.6877 0.604355 12.4025 0.384312 12.0766 0.232541C11.7507 0.0807686 11.3926 0.00124728 11.0295 0L7.9705 0C7.60736 0.00124728 7.24928 0.0807686 6.92339 0.232541C6.59749 0.384312 6.31233 0.604355 6.0895 0.876L4.3605 3H3.95833C2.9089 3.00119 1.90282 3.39666 1.16076 4.09966C0.418698 4.80267 0.00125705 5.7558 0 6.75L0 14.25C0.00125705 15.2442 0.418698 16.1973 1.16076 16.9003C1.90282 17.6033 2.9089 17.9988 3.95833 18H15.0417C16.0911 17.9988 17.0972 17.6033 17.8392 16.9003C18.5813 16.1973 18.9987 15.2442 19 14.25V6.75C18.9987 5.7558 18.5813 4.80267 17.8392 4.09966C17.0972 3.39666 16.0911 3.00119 15.0417 3ZM7.3435 1.7925C7.41766 1.70179 7.51267 1.6283 7.62132 1.57761C7.72997 1.52693 7.84939 1.50038 7.9705 1.5H11.0295C11.1506 1.50049 11.27 1.52709 11.3786 1.57776C11.4872 1.62844 11.5823 1.70187 11.6565 1.7925L12.6397 3H6.36025L7.3435 1.7925ZM17.4167 14.25C17.4167 14.8467 17.1664 15.419 16.721 15.841C16.2756 16.2629 15.6716 16.5 15.0417 16.5H3.95833C3.32844 16.5 2.72435 16.2629 2.27895 15.841C1.83356 15.419 1.58333 14.8467 1.58333 14.25V6.75C1.58333 6.15326 1.83356 5.58097 2.27895 5.15901C2.72435 4.73705 3.32844 4.5 3.95833 4.5H15.0417C15.6716 4.5 16.2756 4.73705 16.721 5.15901C17.1664 5.58097 17.4167 6.15326 17.4167 6.75V14.25Z" fill="#831317"/>
<path d="M9.5 6C8.56054 6 7.64218 6.26392 6.86104 6.75839C6.07991 7.25285 5.47109 7.95566 5.11157 8.77792C4.75206 9.60019 4.65799 10.505 4.84127 11.3779C5.02455 12.2508 5.47695 13.0526 6.14125 13.682C6.80554 14.3113 7.65191 14.7399 8.57332 14.9135C9.49473 15.0872 10.4498 14.9981 11.3177 14.6575C12.1857 14.3169 12.9275 13.7401 13.4495 13.0001C13.9714 12.26 14.25 11.39 14.25 10.5C14.2487 9.30689 13.7479 8.16299 12.8574 7.31933C11.9668 6.47568 10.7594 6.00119 9.5 6ZM9.5 13.5C8.87369 13.5 8.26145 13.3241 7.7407 12.9944C7.21994 12.6648 6.81406 12.1962 6.57438 11.6481C6.33471 11.0999 6.272 10.4967 6.39418 9.91473C6.51637 9.33279 6.81796 8.79824 7.26083 8.37868C7.7037 7.95912 8.26794 7.6734 8.88222 7.55764C9.49649 7.44189 10.1332 7.5013 10.7118 7.72836C11.2905 7.95542 11.785 8.33994 12.133 8.83329C12.4809 9.32664 12.6667 9.90666 12.6667 10.5C12.6667 11.2956 12.333 12.0587 11.7392 12.6213C11.1453 13.1839 10.3399 13.5 9.5 13.5Z" fill="#831317"/>
</g>
<defs>
<clipPath id="clip0_610_171">
<rect width="19" height="18" fill="white"/>
</clipPath>
</defs>
</svg>
