<svg width="18" height="19" viewBox="0 0 18 19" fill="none" xmlns="http://www.w3.org/2000/svg">
<g clip-path="url(#clip0_610_180)">
<path d="M8.99929 18.5747L8.34979 18.0902C7.49479 17.4522 -0.000711938 11.7039 -0.000711938 6.45273C-0.0492068 4.98142 0.456089 3.54967 1.40473 2.47045C2.35336 1.39123 3.66818 0.752312 5.06179 0.693359C5.83103 0.701339 6.58782 0.899323 7.27157 1.27146C7.95531 1.6436 8.54701 2.17955 8.99929 2.8364C9.45157 2.17955 10.0433 1.6436 10.727 1.27146C11.4108 0.899323 12.1675 0.701339 12.9368 0.693359C14.3304 0.752312 15.6452 1.39123 16.5939 2.47045C17.5425 3.54967 18.0478 4.98142 17.9993 6.45273C17.9993 11.7039 10.5038 17.4522 9.64879 18.0902L8.99929 18.5747ZM5.06179 3.06836C4.26526 3.12793 3.52315 3.51675 2.99658 4.1504C2.47 4.78404 2.20147 5.61136 2.24929 6.45273C2.24929 9.5529 6.64654 13.744 8.99929 15.6448C11.352 13.7448 15.7493 9.5529 15.7493 6.45273C15.7971 5.61136 15.5286 4.78404 15.002 4.1504C14.4754 3.51675 13.7333 3.12793 12.9368 3.06836C12.1403 3.12793 11.3982 3.51675 10.8716 4.1504C10.345 4.78404 10.0765 5.61136 10.1243 6.45273H7.87429C7.92211 5.61136 7.65358 4.78404 7.127 4.1504C6.60043 3.51675 5.85831 3.12793 5.06179 3.06836Z" fill="#831317"/>
</g>
<defs>
<clipPath id="clip0_610_180">
<rect width="18" height="19" fill="white"/>
</clipPath>
</defs>
</svg>
