<svg width="18" height="18" viewBox="0 0 18 18" fill="none" xmlns="http://www.w3.org/2000/svg">
<g clip-path="url(#clip0_610_188)">
<path d="M9 4.5C8.40666 4.5 7.82664 4.67595 7.33329 5.00559C6.83994 5.33524 6.45543 5.80377 6.22836 6.35195C6.0013 6.90013 5.94189 7.50333 6.05765 8.08527C6.1734 8.66721 6.45912 9.20176 6.87868 9.62132C7.29824 10.0409 7.83279 10.3266 8.41473 10.4424C8.99667 10.5581 9.59987 10.4987 10.1481 10.2716C10.6962 10.0446 11.1648 9.66006 11.4944 9.16671C11.8241 8.67336 12 8.09334 12 7.5C12 6.70435 11.6839 5.94129 11.1213 5.37868C10.5587 4.81607 9.79565 4.5 9 4.5ZM9 9C8.70333 9 8.41332 8.91203 8.16665 8.7472C7.91997 8.58238 7.72771 8.34811 7.61418 8.07403C7.50065 7.79994 7.47095 7.49834 7.52882 7.20736C7.5867 6.91639 7.72956 6.64912 7.93934 6.43934C8.14912 6.22956 8.41639 6.0867 8.70737 6.02882C8.99834 5.97094 9.29994 6.00065 9.57403 6.11418C9.84812 6.22771 10.0824 6.41997 10.2472 6.66665C10.412 6.91332 10.5 7.20333 10.5 7.5C10.5 7.89783 10.342 8.27936 10.0607 8.56066C9.77936 8.84196 9.39783 9 9 9Z" fill="#831317"/>
<path d="M8.99828 18.0005C8.36674 18.0038 7.74361 17.8556 7.18108 17.5686C6.61855 17.2815 6.13298 16.8638 5.76503 16.3505C2.90678 12.4078 1.45703 9.44378 1.45703 7.54028C1.45703 5.54021 2.25155 3.62206 3.66581 2.2078C5.08007 0.793546 6.99822 -0.000976562 8.99828 -0.000976562C10.9983 -0.000976562 12.9165 0.793546 14.3308 2.2078C15.745 3.62206 16.5395 5.54021 16.5395 7.54028C16.5395 9.44378 15.0898 12.4078 12.2315 16.3505C11.8636 16.8638 11.378 17.2815 10.8155 17.5686C10.2529 17.8556 9.62982 18.0038 8.99828 18.0005ZM8.99828 1.63627C7.43259 1.63806 5.93154 2.26082 4.82444 3.36793C3.71733 4.47504 3.09457 5.97609 3.09278 7.54177C3.09278 9.04928 4.51253 11.837 7.08953 15.3913C7.3083 15.6926 7.59531 15.9379 7.92707 16.107C8.25883 16.2761 8.62591 16.3643 8.99828 16.3643C9.37066 16.3643 9.73774 16.2761 10.0695 16.107C10.4013 15.9379 10.6883 15.6926 10.907 15.3913C13.484 11.837 14.9038 9.04928 14.9038 7.54177C14.902 5.97609 14.2792 4.47504 13.1721 3.36793C12.065 2.26082 10.564 1.63806 8.99828 1.63627Z" fill="#831317"/>
</g>
<defs>
<clipPath id="clip0_610_188">
<rect width="18" height="18" fill="white"/>
</clipPath>
</defs>
</svg>
