<svg width="18" height="18" viewBox="0 0 18 18" fill="none" xmlns="http://www.w3.org/2000/svg">
<g clip-path="url(#clip0_610_176)">
<path d="M12.471 2.17511C11.8807 1.67487 11.262 1.14911 10.632 0.576099C10.1487 0.136576 9.49599 -0.0671194 8.84848 0.0196111C8.22101 0.10251 7.66273 0.459662 7.32449 0.994599C6.43047 2.4886 5.79836 4.12438 5.45548 5.83136C5.32093 5.63709 5.20158 5.43276 5.09847 5.2201C4.74325 4.47169 3.84859 4.15293 3.10018 4.50815C2.91899 4.59414 2.75688 4.71561 2.62347 4.86534C1.36547 6.15086 0.668075 7.88248 0.683966 9.68108C0.648212 13.4615 3.1911 16.7806 6.85048 17.7301C7.53135 17.9014 8.2304 17.99 8.93247 17.9941C8.95497 17.9941 9.19421 17.9918 9.29096 17.9851C13.7685 17.8401 17.3216 14.1654 17.316 9.68558C17.313 6.28811 15.069 4.3831 12.471 2.17511ZM8.91373 16.4888C8.35555 16.4464 7.80395 16.2203 7.38749 15.8843C6.73534 15.4229 6.3038 14.7462 6.201 13.9666C6.07349 12.7501 6.82351 11.1593 8.35576 9.36235C8.51643 9.17469 8.75148 9.06714 8.99853 9.06834C9.24237 9.06658 9.47426 9.17384 9.63078 9.36084C11.0348 11.0274 11.8058 12.5648 11.8058 13.6906C11.8015 15.1696 10.6454 16.3396 9.17329 16.4821C9.10863 16.4883 8.99849 16.4978 8.91373 16.4888ZM13.1805 15.0623C13.1362 15.0968 13.0875 15.1246 13.0425 15.1576C13.2156 14.6873 13.3047 14.1902 13.3058 13.6891C13.3058 11.7938 11.9295 9.76281 10.776 8.39256C10.3347 7.8699 9.68558 7.56812 9.00151 7.56755H8.99849C8.31305 7.56632 7.66157 7.86603 7.21649 8.38729C5.38274 10.5353 4.5405 12.465 4.71298 14.1233C4.75394 14.5082 4.85227 14.8849 5.00474 15.2408C3.22379 13.9503 2.17442 11.8803 2.18623 9.68104C2.17174 8.25233 2.73516 6.87835 3.74847 5.87105C3.92147 6.2307 4.12921 6.57256 4.36873 6.89182C4.69769 7.33654 5.25966 7.54291 5.79822 7.4168C6.34732 7.29534 6.77366 6.86225 6.88648 6.31131C7.1878 4.7186 7.76363 3.19035 8.58822 1.79483C8.68968 1.63529 8.85727 1.52961 9.04497 1.50683C9.25474 1.4786 9.46621 1.54479 9.62248 1.68756C10.266 2.27256 10.8975 2.81256 11.4975 3.32033C14.001 5.44658 15.8107 6.98259 15.8107 9.68558C15.8172 11.7891 14.8462 13.7763 13.1827 15.0638L13.1805 15.0623Z" fill="#831317"/>
</g>
<defs>
<clipPath id="clip0_610_176">
<rect width="18" height="18" fill="white"/>
</clipPath>
</defs>
</svg>
