<svg width="18" height="19" viewBox="0 0 18 19" fill="none" xmlns="http://www.w3.org/2000/svg">
<path d="M17.0641 6.34083C16.2855 5.32236 15.1113 4.7315 13.8714 4.73425H12.3486L12.4159 4.31781C12.69 2.62132 11.6094 1.01148 10.0022 0.722097C9.82536 0.690257 9.64614 0.675487 9.46677 0.678011C8.3398 0.671813 7.30593 1.33711 6.79486 2.39736L5.66511 4.73425H4.10948C1.84092 4.73689 0.00246094 6.67745 0 9.07208V13.0155C0.00246094 15.4102 1.84092 17.3507 4.10948 17.3533H13.0816C15.0208 17.3459 16.6937 15.9148 17.1022 13.9138L17.892 9.97038C18.1511 8.69063 17.8467 7.35584 17.0641 6.34083ZM2.24153 13.0155V9.07208C2.24153 7.98314 3.07782 7.10034 4.10948 7.10034H5.23027V14.9872H4.10948C3.07786 14.9872 2.24153 14.1045 2.24153 13.0155ZM15.699 9.48061L14.9085 13.4241C14.7231 14.3335 13.9629 14.984 13.0816 14.9873H7.47179V6.202L8.79131 3.47235C8.93116 3.19603 9.20918 3.02937 9.50562 3.0441C9.89845 3.04436 10.2167 3.38076 10.2165 3.79542C10.2164 3.83728 10.2131 3.87907 10.2065 3.92033L9.69318 7.10034H13.8714C14.903 7.10023 15.7394 7.98292 15.7395 9.07185C15.7396 9.20923 15.726 9.3462 15.699 9.48061Z" fill="#831317"/>
</svg>
