<svg width="18" height="18" viewBox="0 0 18 18" fill="none" xmlns="http://www.w3.org/2000/svg">
<path d="M17.1168 4.5078C16.7086 2.46736 15.0341 1.00771 13.0928 1H4.11301C1.84235 1.0031 0.00246176 2.98157 0 5.42276V9.44273C0.00246176 11.8838 1.84249 13.862 4.11301 13.8647H5.66923L6.80069 16.2469C7.32153 17.3383 8.37302 18.0175 9.51377 17.9997C11.1456 18.002 12.4701 16.5816 12.4723 14.8273C12.4725 14.6469 12.4585 14.467 12.4303 14.2892L12.3629 13.8647H13.887C16.1585 13.8647 18 11.885 18 9.44281C18 9.13534 17.9702 8.82867 17.911 8.52785L17.1168 4.5078ZM2.24344 9.44273V5.42276C2.24344 4.31267 3.08048 3.41279 4.11298 3.41279H5.2347V11.4527H4.11298C3.08048 11.4527 2.24344 10.5528 2.24344 9.44273ZM15.3355 10.709C14.9811 11.1805 14.4471 11.454 13.8832 11.4527H9.70143L10.2152 14.6944C10.252 14.9165 10.1941 15.1447 10.0574 15.3159C9.91194 15.4973 9.69738 15.5974 9.4748 15.5876C9.19167 15.5908 8.93114 15.4218 8.80176 15.1511L7.47814 12.3717V3.41279H13.0928C13.9752 3.41559 14.7364 4.07938 14.9212 5.00712L15.7124 9.02709C15.8302 9.62014 15.6916 10.2387 15.3355 10.709Z" fill="#831317"/>
</svg>
