<svg preserveAspectRatio="none" width="100%" height="100%" overflow="visible" style="display: block;" viewBox="0 0 106.508 20" fill="none" xmlns="http://www.w3.org/2000/svg">
<g id="Group 393">
<path id="Vector" d="M32.1132 0.0542428C32.558 -0.0474168 34.744 0.0249921 35.3439 0.0250574L41.5503 0.0286484C42.8782 0.0300849 46.3873 -0.0416056 47.5134 0.550723C50.6554 2.20346 51.6628 14.471 53.1595 15.7947C54.1398 15.9883 55.7691 11.0063 55.9702 10.1526C54.8868 9.51244 54.241 8.44975 53.8622 7.27749C53.3509 5.69815 53.2039 3.62695 53.9869 2.10761C54.3213 1.45946 54.8424 0.924389 55.551 0.703311C56.2034 0.499795 57.0125 0.549287 57.6192 0.87307C58.1827 1.17367 58.5053 1.70332 58.6986 2.29546C59.5535 4.9106 57.7557 8.77431 57.9836 9.52152C58.5929 10.2115 60.0942 9.45923 60.6878 9.00238C60.8498 8.35155 60.8896 7.45483 61.239 6.89377C61.9665 5.76559 64.0314 5.94756 65.0253 6.56366C65.9494 7.11453 65.7065 8.31923 65.6196 9.23403C65.4276 11.1955 65.1135 13.1465 64.9359 15.1086C64.9091 15.4104 64.8902 15.7429 65.1559 15.9163C66.1068 15.8955 68.0359 12.3389 68.1704 11.3464C68.3852 9.67606 68.5968 8.18205 69.0775 6.56823C69.5477 4.99117 73.3445 5.56365 73.494 6.34532C73.8231 8.06191 71.958 15.4874 72.4158 16.6667L72.534 16.6974C72.9709 16.4948 73.3712 13.6542 73.5345 13.0381C74.0217 11.2015 74.2463 9.1425 75.1566 7.44941C75.7124 6.41701 76.6619 5.9123 77.7897 6.22153C79.7652 6.65592 79.9167 8.5787 80.5266 10.1393C80.891 11.0714 81.7217 15.1142 83.0578 14.9088C83.8434 14.7882 83.5842 13.9465 83.4203 13.3938C82.4975 10.1878 84.6715 6.72016 87.7767 5.74542C88.9927 5.36366 91.2006 5.06077 91.6375 6.66813C92.0953 8.35285 90.6684 10.3155 89.6163 11.488C89.1775 11.9773 88.3481 12.7795 88.0654 13.304C88.1822 14.37 88.6838 15.8426 89.8423 16.1562C92.1841 16.7904 94.522 13.7138 95.5558 11.9964C95.8529 11.5022 96.1513 10.3828 96.3172 9.81918C95.478 9.61815 94.7473 9.27086 94.2196 8.55252C93.3622 7.38359 93.6619 5.37221 94.8583 4.53138C95.3246 4.20466 95.9019 4.07819 96.4615 4.18011C98.5389 4.55051 97.7963 6.98368 97.524 8.39105C99.0489 8.22919 99.7587 7.48343 101.198 7.81478C101.835 7.96143 102.613 8.48775 102.675 9.13544C102.864 11.105 101.45 13.8634 102.298 15.769C102.389 15.9248 102.539 16.0408 102.71 16.0698C104.331 16.3438 105.108 11.7058 106.262 11.939C106.415 12.0739 106.456 12.1074 106.508 12.3081C106.326 13.4671 104.802 16.2839 104.139 17.2864C103.829 17.6731 103.578 17.9591 103.179 18.2599C101.668 19.3953 99.4766 18.5643 98.5062 17.0934C97.0767 14.9267 97.893 12.0648 98.3305 9.70348C97.9263 9.75572 97.5208 9.79933 97.1146 9.8342C96.4478 12.6423 95.7066 15.0788 93.3282 16.9378C91.3423 18.4897 88.3573 18.6526 86.1865 17.3891C85.3415 16.8971 84.7766 16.217 84.1902 15.4573C83.1186 16.543 81.3919 17.8557 79.835 17.9824C77.6963 18.1565 77.1471 14.838 76.5953 13.3587C76.3511 12.7039 76.1153 11.1746 75.3402 11.2324C74.0648 11.9364 74.3795 18.0981 72.2193 18.2516C68.0293 18.5492 68.7842 16.5365 68.3415 13.5927C67.6369 15.2661 65.7718 18.7215 63.6984 18.698C62.5353 18.6849 60.7551 17.5041 60.5259 16.3114C60.1327 14.2652 60.6369 12.0677 60.6865 9.98313C59.5535 10.622 58.8299 10.8126 57.5199 10.5824C56.6455 12.9209 55.0664 18.1506 52.8924 19.5266C52.1891 19.9635 51.3417 20.1053 50.5344 19.9214C48.684 19.4866 48.4443 17.508 48.0085 15.9201C47.5671 14.2711 47.1161 12.6245 46.6557 10.9807C46.1289 9.10946 45.927 8.2401 44.8967 6.56046C43.634 8.77536 42.5077 11.4871 41.3613 13.8024C39.6221 17.3146 39.1615 19.9296 34.585 19.9831C30.9759 20.0253 27.9389 19.0805 25.2814 16.5813C23.1643 14.4923 20.8963 13.4712 17.9102 13.6077C14.0469 13.6337 10.1617 13.5018 6.29572 13.5995C5.59089 13.6467 4.94334 13.951 4.23021 13.9392C2.87665 13.9167 1.53014 13.5097 0.196756 13.3978C-0.0170502 12.4675 -0.130287 7.20763 0.249784 6.5472C0.526674 6.30034 2.90558 5.76599 3.25986 5.82671C7.40759 6.53708 11.5639 6.31006 15.7513 6.20279C17.5817 6.15591 19.0374 6.46226 20.9026 5.97969C23.3401 5.34916 24.7465 3.87213 26.544 2.25164C28.0229 0.979561 30.1655 0.253057 32.1132 0.0542428ZM87.9328 12.3661L88.5355 11.6884C89.0958 11.0418 89.7796 10.2824 90.1486 9.51303C90.6024 8.5678 91.789 6.35087 89.7874 6.50202C87.972 7.66598 87.8884 10.4602 87.9328 12.3661ZM56.2282 8.23859C56.7493 7.73343 57.3573 2.22004 55.8135 2.21332C55.7959 2.21325 55.7782 2.21325 55.76 2.21345C54.4937 3.60391 55.3603 6.8119 56.2282 8.23859ZM96.7254 7.96463C96.8442 7.27965 97.3399 5.48961 96.2578 5.48177C95.7876 6.35492 95.8986 7.35918 96.7254 7.96463Z" fill="#831317"/>
<path id="Vector_2" d="M63.0787 1.11073C66.5493 1.28066 66.1124 4.7287 63.3811 5.07899C62.2003 5.06743 60.9959 4.62257 60.8117 3.27724C60.7458 2.82373 60.8653 2.36256 61.1435 2.00032C61.6255 1.37206 62.3492 1.20722 63.0787 1.11073Z" fill="#831317"/>
</g>
</svg>
