<svg preserveAspectRatio="none" width="100%" height="100%" overflow="visible" style="display: block;" viewBox="0 0 389.5 30" fill="none" xmlns="http://www.w3.org/2000/svg">
<g id="Group 396">
<path id="Vector" d="M17.4978 2C16.3722 2.01877 15.2711 2.3557 14.3058 2.97675C13.3405 3.59781 12.5451 4.481 12 5.53714C11.4549 4.481 10.6595 3.59781 9.69417 2.97675C8.72886 2.3557 7.62781 2.01877 6.50222 2C4.70788 2.0836 3.01733 2.92529 1.7999 4.34119C0.582466 5.75709 -0.0628841 7.63211 0.00483915 9.55661C0.00483915 16.8185 10.9564 25.2058 11.4222 25.5616L12 26L12.5778 25.5616C13.0436 25.2079 23.9952 16.8185 23.9952 9.55661C24.0629 7.63211 23.4175 5.75709 22.2001 4.34119C20.9827 2.92529 19.2921 2.0836 17.4978 2Z" fill="#831317"/>
<g id="share">
<mask id="mask0_0_32" style="mask-type:alpha" maskUnits="userSpaceOnUse" x="44" y="2" width="24" height="24">
<rect id="Bounding box" x="44" y="2" width="24" height="24" fill="#D9D9D9"/>
</mask>
<g mask="url(#mask0_0_32)">
<path id="share_2" d="M62.3333 26C61.3148 26 60.4491 25.65 59.7361 24.95C59.0231 24.25 58.6667 23.4 58.6667 22.4C58.6667 22.28 58.6972 22 58.7583 21.56L50.1722 16.64C49.8463 16.94 49.4694 17.175 49.0417 17.345C48.6139 17.515 48.1556 17.6 47.6667 17.6C46.6481 17.6 45.7824 17.25 45.0694 16.55C44.3565 15.85 44 15 44 14C44 13 44.3565 12.15 45.0694 11.45C45.7824 10.75 46.6481 10.4 47.6667 10.4C48.1556 10.4 48.6139 10.485 49.0417 10.655C49.4694 10.825 49.8463 11.06 50.1722 11.36L58.7583 6.44C58.7176 6.3 58.6921 6.165 58.6819 6.035C58.6718 5.905 58.6667 5.76 58.6667 5.6C58.6667 4.6 59.0231 3.75 59.7361 3.05C60.4491 2.35 61.3148 2 62.3333 2C63.3519 2 64.2176 2.35 64.9306 3.05C65.6435 3.75 66 4.6 66 5.6C66 6.6 65.6435 7.45 64.9306 8.15C64.2176 8.85 63.3519 9.2 62.3333 9.2C61.8444 9.2 61.3861 9.115 60.9583 8.945C60.5306 8.775 60.1537 8.54 59.8278 8.24L51.2417 13.16C51.2824 13.3 51.3079 13.435 51.3181 13.565C51.3282 13.695 51.3333 13.84 51.3333 14C51.3333 14.16 51.3282 14.305 51.3181 14.435C51.3079 14.565 51.2824 14.7 51.2417 14.84L59.8278 19.76C60.1537 19.46 60.5306 19.225 60.9583 19.055C61.3861 18.885 61.8444 18.8 62.3333 18.8C63.3519 18.8 64.2176 19.15 64.9306 19.85C65.6435 20.55 66 21.4 66 22.4C66 23.4 65.6435 24.25 64.9306 24.95C64.2176 25.65 63.3519 26 62.3333 26ZM62.3333 23.6C62.6796 23.6 62.9699 23.485 63.2042 23.255C63.4384 23.025 63.5556 22.74 63.5556 22.4C63.5556 22.06 63.4384 21.775 63.2042 21.545C62.9699 21.315 62.6796 21.2 62.3333 21.2C61.987 21.2 61.6968 21.315 61.4625 21.545C61.2282 21.775 61.1111 22.06 61.1111 22.4C61.1111 22.74 61.2282 23.025 61.4625 23.255C61.6968 23.485 61.987 23.6 62.3333 23.6ZM47.6667 15.2C48.013 15.2 48.3032 15.085 48.5375 14.855C48.7718 14.625 48.8889 14.34 48.8889 14C48.8889 13.66 48.7718 13.375 48.5375 13.145C48.3032 12.915 48.013 12.8 47.6667 12.8C47.3204 12.8 47.0301 12.915 46.7958 13.145C46.5616 13.375 46.4444 13.66 46.4444 14C46.4444 14.34 46.5616 14.625 46.7958 14.855C47.0301 15.085 47.3204 15.2 47.6667 15.2ZM63.2042 6.455C63.4384 6.225 63.5556 5.94 63.5556 5.6C63.5556 5.26 63.4384 4.975 63.2042 4.745C62.9699 4.515 62.6796 4.4 62.3333 4.4C61.987 4.4 61.6968 4.515 61.4625 4.745C61.2282 4.975 61.1111 5.26 61.1111 5.6C61.1111 5.94 61.2282 6.225 61.4625 6.455C61.6968 6.685 61.987 6.8 62.3333 6.8C62.6796 6.8 62.9699 6.685 63.2042 6.455Z" fill="#1C1B1F"/>
</g>
</g>
<g id="chat_bubble">
<mask id="mask1_0_32" style="mask-type:alpha" maskUnits="userSpaceOnUse" x="86" y="0" width="30" height="30">
<rect id="Bounding box_2" x="86" width="30" height="30" fill="#D9D9D9"/>
</mask>
<g mask="url(#mask1_0_32)">
<path id="chat_bubble_2" d="M93.5002 22.5028L90.6252 25.3778C90.2293 25.7736 89.7762 25.8622 89.2658 25.6434C88.7554 25.4247 88.5002 25.034 88.5002 24.4715V5.00279C88.5002 4.31529 88.745 3.72675 89.2346 3.23717C89.7241 2.74758 90.3127 2.50279 91.0002 2.50279H111C111.688 2.50279 112.276 2.74758 112.766 3.23717C113.255 3.72675 113.5 4.31529 113.5 5.00279V20.0028C113.5 20.6903 113.255 21.2788 112.766 21.7684C112.276 22.258 111.688 22.5028 111 22.5028H93.5002ZM92.4377 20.0028H111V5.00279H91.0002V21.409L92.4377 20.0028Z" fill="#1C1B1F"/>
</g>
</g>
<path id="Vector_2" d="M383.5 2H372.5C371.042 2.00185 369.644 2.5818 368.613 3.61265C367.582 4.64351 367.002 6.04111 367 7.49896V22.4681C367.001 23.1683 367.212 23.8522 367.605 24.4314C367.999 25.0105 368.557 25.4582 369.208 25.7167C369.859 25.9751 370.573 26.0323 371.257 25.881C371.94 25.7296 372.563 25.3766 373.044 24.8677L377.956 19.6686L382.969 24.9176C383.452 25.4227 384.074 25.7719 384.757 25.9202C385.44 26.0685 386.151 26.0092 386.8 25.7498C387.448 25.4904 388.005 25.0429 388.397 24.4648C388.789 23.8868 388.999 23.2046 389 22.5061V7.49896C388.998 6.04111 388.418 4.64351 387.387 3.61265C386.356 2.5818 384.958 2.00185 383.5 2ZM386 22.5061C386 22.6058 385.97 22.7032 385.914 22.7857C385.858 22.8682 385.779 22.9321 385.686 22.9692C385.593 23.0063 385.492 23.0148 385.394 22.9938C385.297 22.9727 385.208 22.923 385.139 22.851L379.039 16.4613C378.898 16.3141 378.729 16.1971 378.542 16.1174C378.355 16.0376 378.154 15.9968 377.95 15.9973C377.747 15.9979 377.545 16.0399 377.359 16.1207C377.172 16.2015 377.004 16.3194 376.864 16.4673L370.864 22.811C370.797 22.8867 370.708 22.9392 370.609 22.9611C370.511 22.983 370.408 22.9732 370.315 22.933C370.22 22.8996 370.137 22.8364 370.081 22.7526C370.024 22.6689 369.996 22.5691 370 22.4681V7.49896C370 6.83604 370.263 6.20028 370.732 5.73152C371.201 5.26277 371.837 4.99943 372.5 4.99943H383.5C384.163 4.99943 384.799 5.26277 385.268 5.73152C385.737 6.20028 386 6.83604 386 7.49896V22.5061Z" fill="black" stroke="white"/>
</g>
</svg>
