<svg preserveAspectRatio="none" width="100%" height="100%" overflow="visible" style="display: block;" viewBox="0 0 391 25.1255" fill="none" xmlns="http://www.w3.org/2000/svg">
<g id="Group 432">
<path id="share" d="M63.8333 24.5001C62.8148 24.5001 61.9491 24.1501 61.2361 23.4501C60.5231 22.7501 60.1667 21.9001 60.1667 20.9001C60.1667 20.7801 60.1972 20.5001 60.2583 20.0601L51.6722 15.1401C51.3463 15.4401 50.9694 15.6751 50.5417 15.8451C50.1139 16.0151 49.6556 16.1001 49.1667 16.1001C48.1481 16.1001 47.2824 15.7501 46.5694 15.0501C45.8565 14.3501 45.5 13.5001 45.5 12.5001C45.5 11.5001 45.8565 10.6501 46.5694 9.95011C47.2824 9.25011 48.1481 8.90011 49.1667 8.90011C49.6556 8.90011 50.1139 8.98511 50.5417 9.15511C50.9694 9.32511 51.3463 9.56011 51.6722 9.86011L60.2583 4.94011C60.2176 4.80011 60.1921 4.66511 60.1819 4.53511C60.1718 4.40511 60.1667 4.26011 60.1667 4.10011C60.1667 3.10011 60.5231 2.25011 61.2361 1.55011C61.9491 0.850111 62.8148 0.500111 63.8333 0.500111C64.8519 0.500111 65.7176 0.850111 66.4306 1.55011C67.1435 2.25011 67.5 3.10011 67.5 4.10011C67.5 5.10011 67.1435 5.95011 66.4306 6.65011C65.7176 7.35011 64.8519 7.70011 63.8333 7.70011C63.3444 7.70011 62.8861 7.61511 62.4583 7.44511C62.0306 7.27511 61.6537 7.04011 61.3278 6.74011L52.7417 11.6601C52.7824 11.8001 52.8079 11.9351 52.8181 12.0651C52.8282 12.1951 52.8333 12.3401 52.8333 12.5001C52.8333 12.6601 52.8282 12.8051 52.8181 12.9351C52.8079 13.0651 52.7824 13.2001 52.7417 13.3401L61.3278 18.2601C61.6537 17.9601 62.0306 17.7251 62.4583 17.5551C62.8861 17.3851 63.3444 17.3001 63.8333 17.3001C64.8519 17.3001 65.7176 17.6501 66.4306 18.3501C67.1435 19.0501 67.5 19.9001 67.5 20.9001C67.5 21.9001 67.1435 22.7501 66.4306 23.4501C65.7176 24.1501 64.8519 24.5001 63.8333 24.5001ZM63.8333 22.1001C64.1796 22.1001 64.4699 21.9851 64.7042 21.7551C64.9384 21.5251 65.0556 21.2401 65.0556 20.9001C65.0556 20.5601 64.9384 20.2751 64.7042 20.0451C64.4699 19.8151 64.1796 19.7001 63.8333 19.7001C63.487 19.7001 63.1968 19.8151 62.9625 20.0451C62.7282 20.2751 62.6111 20.5601 62.6111 20.9001C62.6111 21.2401 62.7282 21.5251 62.9625 21.7551C63.1968 21.9851 63.487 22.1001 63.8333 22.1001ZM49.1667 13.7001C49.513 13.7001 49.8032 13.5851 50.0375 13.3551C50.2718 13.1251 50.3889 12.8401 50.3889 12.5001C50.3889 12.1601 50.2718 11.8751 50.0375 11.6451C49.8032 11.4151 49.513 11.3001 49.1667 11.3001C48.8204 11.3001 48.5301 11.4151 48.2958 11.6451C48.0616 11.8751 47.9444 12.1601 47.9444 12.5001C47.9444 12.8401 48.0616 13.1251 48.2958 13.3551C48.5301 13.5851 48.8204 13.7001 49.1667 13.7001ZM64.7042 4.95511C64.9384 4.72511 65.0556 4.44011 65.0556 4.10011C65.0556 3.76011 64.9384 3.47511 64.7042 3.24511C64.4699 3.01511 64.1796 2.90011 63.8333 2.90011C63.487 2.90011 63.1968 3.01511 62.9625 3.24511C62.7282 3.47511 62.6111 3.76011 62.6111 4.10011C62.6111 4.44011 62.7282 4.72511 62.9625 4.95511C63.1968 5.18511 63.487 5.30011 63.8333 5.30011C64.1796 5.30011 64.4699 5.18511 64.7042 4.95511Z" fill="#1C1B1F"/>
<path id="chat_bubble" d="M95 21.0001L92.125 23.8751C91.7292 24.2709 91.276 24.3595 90.7656 24.1407C90.2552 23.922 90 23.5314 90 22.9689V3.50011C90 2.81261 90.2448 2.22407 90.7344 1.73449C91.224 1.2449 91.8125 1.00011 92.5 1.00011H112.5C113.187 1.00011 113.776 1.2449 114.266 1.73449C114.755 2.22407 115 2.81261 115 3.50011V18.5001C115 19.1876 114.755 19.7762 114.266 20.2657C113.776 20.7553 113.187 21.0001 112.5 21.0001H95ZM93.9375 18.5001H112.5V3.50011H92.5V19.9064L93.9375 18.5001Z" fill="#1C1B1F"/>
<path id="Vector" d="M385 0.500111H374C372.542 0.501963 371.144 1.08191 370.113 2.11276C369.082 3.14362 368.502 4.54122 368.5 5.99907V20.9682C368.501 21.6685 368.712 22.3524 369.105 22.9315C369.499 23.5106 370.057 23.9583 370.708 24.2168C371.359 24.4752 372.073 24.5324 372.757 24.3811C373.44 24.2297 374.063 23.8767 374.544 23.3678L379.456 18.1688L384.469 23.4178C384.952 23.9229 385.574 24.272 386.257 24.4203C386.94 24.5686 387.651 24.5093 388.3 24.2499C388.948 23.9905 389.505 23.543 389.897 22.9649C390.289 22.3869 390.499 21.7047 390.5 21.0062V5.99907C390.498 4.54122 389.918 3.14362 388.887 2.11276C387.856 1.08191 386.458 0.501963 385 0.500111ZM387.5 21.0062C387.5 21.1059 387.47 21.2033 387.414 21.2858C387.358 21.3683 387.279 21.4322 387.186 21.4693C387.093 21.5064 386.992 21.515 386.894 21.4939C386.797 21.4728 386.708 21.4231 386.639 21.3511L380.539 14.9614C380.398 14.8142 380.229 14.6972 380.042 14.6175C379.855 14.5377 379.654 14.4969 379.45 14.4975C379.247 14.4981 379.045 14.54 378.859 14.6208C378.672 14.7016 378.504 14.8195 378.364 14.9674L372.364 21.3112C372.297 21.3868 372.208 21.4393 372.109 21.4612C372.011 21.4831 371.908 21.4733 371.815 21.4331C371.72 21.3997 371.637 21.3365 371.581 21.2528C371.524 21.169 371.496 21.0693 371.5 20.9682V5.99907C371.5 5.33615 371.763 4.70039 372.232 4.23164C372.701 3.76288 373.337 3.49954 374 3.49954H385C385.663 3.49954 386.299 3.76288 386.768 4.23164C387.237 4.70039 387.5 5.33615 387.5 5.99907V21.0062Z" fill="black" stroke="white"/>
<path id="Vector_2" d="M12.5 24.5001L11.6343 23.8498C10.4947 22.9934 0.504256 15.2782 0.504256 8.23022C0.43962 6.25545 1.11311 4.33379 2.37751 2.88528C3.64191 1.43677 5.39438 0.579236 7.25186 0.500111C8.27716 0.510821 9.28585 0.776551 10.1972 1.27602C11.1085 1.7755 11.8972 2.49484 12.5 3.37646C13.1028 2.49484 13.8915 1.7755 14.8028 1.27602C15.7141 0.776551 16.7228 0.510821 17.7481 0.500111C19.6056 0.579236 21.3581 1.43677 22.6225 2.88528C23.8869 4.33379 24.5604 6.25545 24.4957 8.23022C24.4957 15.2782 14.5053 22.9934 13.3657 23.8498L12.5 24.5001ZM7.25186 3.68779C6.1902 3.76774 5.20107 4.28961 4.49922 5.14007C3.79737 5.99054 3.43946 7.10095 3.50319 8.23022C3.50319 12.3912 9.36411 18.0164 12.5 20.5676C15.6359 18.0174 21.4968 12.3912 21.4968 8.23022C21.5605 7.10095 21.2026 5.99054 20.5008 5.14007C19.7989 4.28961 18.8098 3.76774 17.7481 3.68779C16.6865 3.76774 15.6973 4.28961 14.9955 5.14007C14.2936 5.99054 13.9357 7.10095 13.9995 8.23022H11.0005C11.0643 7.10095 10.7064 5.99054 10.0045 5.14007C9.30265 4.28961 8.31352 3.76774 7.25186 3.68779Z" fill="#831317" stroke="white"/>
</g>
</svg>
