<svg preserveAspectRatio="none" width="100%" height="100%" overflow="visible" style="display: block;" viewBox="0 0 15.6595 16.1219" fill="none" xmlns="http://www.w3.org/2000/svg">
<g id="Group 328">
<path id="Vector" d="M12.3314 8.77614C10.7482 9.17253 9.35116 9.78402 8.24487 10.9382C7.16146 12.0673 6.56367 13.453 6.17603 15.0134C5.50203 11.5552 3.48219 9.47828 0 8.75321C3.39834 8.01941 5.37681 5.92612 6.17386 2.55086C6.87073 5.99928 8.89384 8.07292 12.3314 8.77614Z" fill="white"/>
<path id="Vector_2" d="M15.4613 3.1809C14.7209 3.44078 14.0283 3.71268 13.4861 4.27614C12.946 4.83631 12.6825 5.53954 12.3678 6.27661C11.978 4.60482 10.9817 3.57619 9.2711 3.16233C10.9403 2.719 11.9551 1.68272 12.3798 8.07643e-06C12.6106 0.761106 12.897 1.4556 13.4371 2.02888C13.9902 2.61744 14.6991 2.89153 15.4613 3.1809Z" fill="white"/>
<path id="Vector_3" d="M10.3992 13.3996C11.8659 13.0557 12.6869 12.2028 13.0484 10.8106C13.3892 12.2236 14.2222 13.0972 15.6595 13.4444C14.2886 13.8342 13.4306 14.6881 13.1083 16.1219C12.088 13.7218 11.6819 14.0253 10.3992 13.3996Z" fill="white"/>
</g>
</svg>
