<svg preserveAspectRatio="none" width="100%" height="100%" overflow="visible" style="display: block;" viewBox="0 0 24 24" fill="none" xmlns="http://www.w3.org/2000/svg">
<g id="chevron_forward">
<mask id="mask0_0_30" style="mask-type:alpha" maskUnits="userSpaceOnUse" x="0" y="0" width="24" height="24">
<rect id="Bounding box" width="24" height="24" fill="#D9D9D9"/>
</mask>
<g mask="url(#mask0_0_30)">
<path id="chevron_forward_2" d="M12.5969 11.9969L8.69688 8.09688C8.51354 7.91354 8.42188 7.68021 8.42188 7.39688C8.42188 7.11354 8.51354 6.88021 8.69688 6.69688C8.88021 6.51354 9.11354 6.42188 9.39688 6.42188C9.68021 6.42188 9.91354 6.51354 10.0969 6.69688L14.6969 11.2969C14.7969 11.3969 14.8677 11.5052 14.9094 11.6219C14.951 11.7385 14.9719 11.8635 14.9719 11.9969C14.9719 12.1302 14.951 12.2552 14.9094 12.3719C14.8677 12.4885 14.7969 12.5969 14.6969 12.6969L10.0969 17.2969C9.91354 17.4802 9.68021 17.5719 9.39688 17.5719C9.11354 17.5719 8.88021 17.4802 8.69688 17.2969C8.51354 17.1135 8.42188 16.8802 8.42188 16.5969C8.42188 16.3135 8.51354 16.0802 8.69688 15.8969L12.5969 11.9969Z" fill="#831317"/>
</g>
</g>
</svg>
