<svg preserveAspectRatio="none" width="100%" height="100%" overflow="visible" style="display: block;" viewBox="0 0 172 28" fill="none" xmlns="http://www.w3.org/2000/svg">
<g id="star-rating" clip-path="url(#clip0_0_13)">
<path id="star-1" d="M14 0L17.1432 9.67376H27.3148L19.0858 15.6525L22.229 25.3262L14 19.3475L5.77101 25.3262L8.9142 15.6525L0.685208 9.67376H10.8568L14 0Z" fill="#841317"/>
<path id="star-2" d="M50 0L53.1432 9.67376H63.3148L55.0858 15.6525L58.229 25.3262L50 19.3475L41.771 25.3262L44.9142 15.6525L36.6852 9.67376H46.8568L50 0Z" fill="#841317"/>
<path id="star-3" d="M86 0L89.1432 9.67376H99.3148L91.0858 15.6525L94.229 25.3262L86 19.3475L77.771 25.3262L80.9142 15.6525L72.6852 9.67376H82.8568L86 0Z" fill="#841317"/>
<path id="star-4" d="M122 0L125.143 9.67376H135.315L127.086 15.6525L130.229 25.3262L122 19.3475L113.771 25.3262L116.914 15.6525L108.685 9.67376H118.857L122 0Z" fill="#841317"/>
<path id="star-5" d="M158 0L161.143 9.67376H171.315L163.086 15.6525L166.229 25.3262L158 19.3475L149.771 25.3262L152.914 15.6525L144.685 9.67376H154.857L158 0Z" fill="#939393" fill-opacity="0.18"/>
</g>
<defs>
<clipPath id="clip0_0_13">
<rect width="172" height="28" fill="white"/>
</clipPath>
</defs>
</svg>
