<svg preserveAspectRatio="none" width="100%" height="100%" overflow="visible" style="display: block;" viewBox="0 0 17 19" fill="none" xmlns="http://www.w3.org/2000/svg">
<path id="Icon" d="M14.1667 19C13.3796 19 12.7106 18.7229 12.1597 18.1688C11.6088 17.6146 11.3333 16.9417 11.3333 16.15C11.3333 16.055 11.3569 15.8333 11.4042 15.485L4.76944 11.59C4.51759 11.8275 4.22639 12.0135 3.89583 12.1481C3.56528 12.2827 3.21111 12.35 2.83333 12.35C2.0463 12.35 1.37731 12.0729 0.826389 11.5187C0.275463 10.9646 0 10.2917 0 9.5C0 8.70833 0.275463 8.03542 0.826389 7.48125C1.37731 6.92708 2.0463 6.65 2.83333 6.65C3.21111 6.65 3.56528 6.71729 3.89583 6.85188C4.22639 6.98646 4.51759 7.1725 4.76944 7.41L11.4042 3.515C11.3727 3.40417 11.353 3.29729 11.3451 3.19437C11.3373 3.09146 11.3333 2.97667 11.3333 2.85C11.3333 2.05833 11.6088 1.38542 12.1597 0.83125C12.7106 0.277083 13.3796 0 14.1667 0C14.9537 0 15.6227 0.277083 16.1736 0.83125C16.7245 1.38542 17 2.05833 17 2.85C17 3.64167 16.7245 4.31458 16.1736 4.86875C15.6227 5.42292 14.9537 5.7 14.1667 5.7C13.7889 5.7 13.4347 5.63271 13.1042 5.49812C12.7736 5.36354 12.4824 5.1775 12.2306 4.94L5.59583 8.835C5.62731 8.94583 5.64699 9.05271 5.65486 9.15562C5.66273 9.25854 5.66667 9.37333 5.66667 9.5C5.66667 9.62667 5.66273 9.74146 5.65486 9.84438C5.64699 9.94729 5.62731 10.0542 5.59583 10.165L12.2306 14.06C12.4824 13.8225 12.7736 13.6365 13.1042 13.5019C13.4347 13.3673 13.7889 13.3 14.1667 13.3C14.9537 13.3 15.6227 13.5771 16.1736 14.1312C16.7245 14.6854 17 15.3583 17 16.15C17 16.9417 16.7245 17.6146 16.1736 18.1688C15.6227 18.7229 14.9537 19 14.1667 19ZM14.1667 17.1C14.4343 17.1 14.6586 17.009 14.8396 16.8269C15.0206 16.6448 15.1111 16.4192 15.1111 16.15C15.1111 15.8808 15.0206 15.6552 14.8396 15.4731C14.6586 15.291 14.4343 15.2 14.1667 15.2C13.8991 15.2 13.6748 15.291 13.4937 15.4731C13.3127 15.6552 13.2222 15.8808 13.2222 16.15C13.2222 16.4192 13.3127 16.6448 13.4937 16.8269C13.6748 17.009 13.8991 17.1 14.1667 17.1ZM2.83333 10.45C3.10093 10.45 3.32523 10.359 3.50625 10.1769C3.68727 9.99479 3.77778 9.76917 3.77778 9.5C3.77778 9.23083 3.68727 9.00521 3.50625 8.82313C3.32523 8.64104 3.10093 8.55 2.83333 8.55C2.56574 8.55 2.34144 8.64104 2.16042 8.82313C1.9794 9.00521 1.88889 9.23083 1.88889 9.5C1.88889 9.76917 1.9794 9.99479 2.16042 10.1769C2.34144 10.359 2.56574 10.45 2.83333 10.45ZM14.1667 3.8C14.4343 3.8 14.6586 3.70896 14.8396 3.52688C15.0206 3.34479 15.1111 3.11917 15.1111 2.85C15.1111 2.58083 15.0206 2.35521 14.8396 2.17312C14.6586 1.99104 14.4343 1.9 14.1667 1.9C13.8991 1.9 13.6748 1.99104 13.4937 2.17312C13.3127 2.35521 13.2222 2.58083 13.2222 2.85C13.2222 3.11917 13.3127 3.34479 13.4937 3.52688C13.6748 3.70896 13.8991 3.8 14.1667 3.8Z" fill="#831317"/>
</svg>
