<svg preserveAspectRatio="none" width="100%" height="100%" overflow="visible" style="display: block;" viewBox="0 0 19.8333 19.8333" fill="none" xmlns="http://www.w3.org/2000/svg">
<path id="add" d="M8.5 11.3333H1.41667C1.01528 11.3333 0.678819 11.1976 0.407292 10.926C0.135764 10.6545 0 10.3181 0 9.91667C0 9.51528 0.135764 9.17882 0.407292 8.90729C0.678819 8.63576 1.01528 8.5 1.41667 8.5H8.5V1.41667C8.5 1.01528 8.63576 0.678819 8.90729 0.407292C9.17882 0.135764 9.51528 0 9.91667 0C10.3181 0 10.6545 0.135764 10.926 0.407292C11.1976 0.678819 11.3333 1.01528 11.3333 1.41667V8.5H18.4167C18.8181 8.5 19.1545 8.63576 19.426 8.90729C19.6976 9.17882 19.8333 9.51528 19.8333 9.91667C19.8333 10.3181 19.6976 10.6545 19.426 10.926C19.1545 11.1976 18.8181 11.3333 18.4167 11.3333H11.3333V18.4167C11.3333 18.8181 11.1976 19.1545 10.926 19.426C10.6545 19.6976 10.3181 19.8333 9.91667 19.8333C9.51528 19.8333 9.17882 19.6976 8.90729 19.426C8.63576 19.1545 8.5 18.8181 8.5 18.4167V11.3333Z" fill="white"/>
</svg>
