<svg preserveAspectRatio="none" width="100%" height="100%" overflow="visible" style="display: block;" viewBox="0 0 34 34" fill="none" xmlns="http://www.w3.org/2000/svg">
<g id="add">
<mask id="mask0_0_16" style="mask-type:alpha" maskUnits="userSpaceOnUse" x="0" y="0" width="34" height="34">
<rect id="Bounding box" width="34" height="34" fill="var(--fill-0, #D9D9D9)"/>
</mask>
<g mask="url(#mask0_0_16)">
<path id="add_2" d="M15.5898 18.4134H8.50651C8.10512 18.4134 7.76866 18.2776 7.49714 18.0061C7.22561 17.7346 7.08984 17.3981 7.08984 16.9967C7.08984 16.5954 7.22561 16.2589 7.49714 15.9874C7.76866 15.7158 8.10512 15.5801 8.50651 15.5801H15.5898V8.49674C15.5898 8.09536 15.7256 7.7589 15.9971 7.48737C16.2687 7.21584 16.6051 7.08008 17.0065 7.08008C17.4079 7.08008 17.7444 7.21584 18.0159 7.48737C18.2874 7.7589 18.4232 8.09536 18.4232 8.49674V15.5801H25.5065C25.9079 15.5801 26.2444 15.7158 26.5159 15.9874C26.7874 16.2589 26.9232 16.5954 26.9232 16.9967C26.9232 17.3981 26.7874 17.7346 26.5159 18.0061C26.2444 18.2776 25.9079 18.4134 25.5065 18.4134H18.4232V25.4967C18.4232 25.8981 18.2874 26.2346 18.0159 26.5061C17.7444 26.7776 17.4079 26.9134 17.0065 26.9134C16.6051 26.9134 16.2687 26.7776 15.9971 26.5061C15.7256 26.2346 15.5898 25.8981 15.5898 25.4967V18.4134Z" fill="var(--fill-0, #4E000E)"/>
</g>
</g>
</svg>
