<svg preserveAspectRatio="none" width="100%" height="100%" overflow="visible" style="display: block;" viewBox="0 0 427 106" fill="none" xmlns="http://www.w3.org/2000/svg">
<defs>
<linearGradient id="rimLight" x1="213.5" y1="0" x2="213.5" y2="106" gradientUnits="userSpaceOnUse">
<stop offset="0" stop-color="#FFFFFF" stop-opacity="0.78"/>
<stop offset="0.22" stop-color="#FFFFFF" stop-opacity="0.28"/>
<stop offset="0.5" stop-color="#FFFFFF" stop-opacity="0.06"/>
<stop offset="0.78" stop-color="#FFFFFF" stop-opacity="0.26"/>
<stop offset="1" stop-color="#FFFFFF" stop-opacity="0.6"/>
</linearGradient>
<radialGradient id="rimHotspotTop" cx="213.5" cy="20" r="140" gradientUnits="userSpaceOnUse">
<stop offset="0" stop-color="#FFFFFF" stop-opacity="0.9"/>
<stop offset="1" stop-color="#FFFFFF" stop-opacity="0"/>
</radialGradient>
<radialGradient id="rimHotspotBottom" cx="213.5" cy="86" r="140" gradientUnits="userSpaceOnUse">
<stop offset="0" stop-color="#FFFFFF" stop-opacity="0.55"/>
<stop offset="1" stop-color="#FFFFFF" stop-opacity="0"/>
</radialGradient>
<filter id="soften" x="-30%" y="-30%" width="160%" height="160%">
<feGaussianBlur stdDeviation="0.55"/>
</filter>
</defs>
<path d="M371.828 20H281.054C267.509 20 254.819 26.4598 247.871 37.2425C240.887 48.0747 228.107 55.3348 213.5 55.3348C198.893 55.3348 186.122 48.083 179.129 37.2425C172.181 26.4598 159.491 20 145.946 20H55.172C35.75 20.4208 20 35.0975 20 53C20 70.9025 35.75 85.5793 55.172 86H371.828C391.25 85.5793 407 70.9025 407 53C407 35.0975 391.25 20.4208 371.828 20Z" stroke="url(#rimLight)" stroke-width="1.4" filter="url(#soften)"/>
<path d="M371.828 20H281.054C267.509 20 254.819 26.4598 247.871 37.2425C240.887 48.0747 228.107 55.3348 213.5 55.3348C198.893 55.3348 186.122 48.083 179.129 37.2425C172.181 26.4598 159.491 20 145.946 20H55.172C35.75 20.4208 20 35.0975 20 53C20 70.9025 35.75 85.5793 55.172 86H371.828C391.25 85.5793 407 70.9025 407 53C407 35.0975 391.25 20.4208 371.828 20Z" stroke="url(#rimHotspotTop)" stroke-width="1.6" filter="url(#soften)"/>
<path d="M371.828 20H281.054C267.509 20 254.819 26.4598 247.871 37.2425C240.887 48.0747 228.107 55.3348 213.5 55.3348C198.893 55.3348 186.122 48.083 179.129 37.2425C172.181 26.4598 159.491 20 145.946 20H55.172C35.75 20.4208 20 35.0975 20 53C20 70.9025 35.75 85.5793 55.172 86H371.828C391.25 85.5793 407 70.9025 407 53C407 35.0975 391.25 20.4208 371.828 20Z" stroke="url(#rimHotspotBottom)" stroke-width="1.6" filter="url(#soften)"/>
</svg>
