<svg preserveAspectRatio="none" width="100%" height="100%" overflow="visible" style="display: block;" viewBox="0 0 442.003 92" fill="none" xmlns="http://www.w3.org/2000/svg">
<g id="Vector" filter="url(#filter0_d_0_14)">
<path d="M403.636 6H296.06C281.011 6 266.91 13.8347 259.187 26.9027C251.423 40.0366 237.227 48.8284 221 48.8284C204.773 48.8284 190.577 40.0339 182.813 26.9027C175.093 13.8347 160.989 6 145.94 6H37.5943C20.1443 6 6 20.3082 6 37.9604V71.1885C6 79.3698 12.5543 86 20.6418 86H421.361C429.448 86 436.003 79.3698 436.003 71.1885V38.7386C436 20.6575 421.51 6 403.636 6Z" fill="white"/>
</g>
<defs>
<filter id="filter0_d_0_14" x="0" y="0" width="442.003" height="92" filterUnits="userSpaceOnUse" color-interpolation-filters="sRGB">
<feFlood flood-opacity="0" result="BackgroundImageFix"/>
<feColorMatrix in="SourceAlpha" type="matrix" values="0 0 0 0 0 0 0 0 0 0 0 0 0 0 0 0 0 0 127 0" result="hardAlpha"/>
<feOffset/>
<feGaussianBlur stdDeviation="3"/>
<feComposite in2="hardAlpha" operator="out"/>
<feColorMatrix type="matrix" values="0 0 0 0 0 0 0 0 0 0 0 0 0 0 0 0 0 0 0.05 0"/>
<feBlend mode="normal" in2="BackgroundImageFix" result="effect1_dropShadow_0_14"/>
<feBlend mode="normal" in="BackgroundImageFix" in2="effect1_dropShadow_0_14" result="BackgroundImageFix"/>
<feBlend mode="normal" in="SourceGraphic" in2="BackgroundImageFix" result="shape"/>
</filter>
</defs>
</svg>
