<svg preserveAspectRatio="none" width="100%" height="100%" overflow="visible" style="display: block;" viewBox="0 0 24.75 24.2418" fill="none" xmlns="http://www.w3.org/2000/svg">
<g id="Group">
<path id="Vector" d="M12.375 15.145C10.6664 15.145 9.28125 16.5025 9.28125 18.1771V24.2413H15.4688V18.1771C15.4688 16.5025 14.0836 15.145 12.375 15.145Z" fill="#670E10"/>
<g id="Group_2">
<path id="Vector_2" d="M17.5313 18.1776V24.2418H21.6563C23.3649 24.2418 24.75 22.8843 24.75 21.2097V11.9911C24.7502 11.466 24.542 10.9614 24.1694 10.5842L15.4059 1.2988C13.8596 -0.340914 11.2498 -0.441589 9.57675 1.0739C9.49728 1.14591 9.42071 1.22091 9.34728 1.2988L0.599172 10.5811C0.215257 10.96 -0.000144946 11.4723 7.31819e-08 12.0062V21.2097C7.31819e-08 22.8843 1.38513 24.2418 3.09375 24.2418H7.21873V18.1776C7.23802 15.4216 9.5084 13.171 12.2496 13.1062C15.0825 13.0392 17.5097 15.3281 17.5313 18.1776Z" fill="#831317"/>
<path id="Vector_3" d="M12.375 15.145C10.6664 15.145 9.28125 16.5025 9.28125 18.1771V24.2413H15.4688V18.1771C15.4688 16.5025 14.0836 15.145 12.375 15.145Z" fill="#831317"/>
</g>
</g>
</svg>
