<svg preserveAspectRatio="none" width="100%" height="100%" overflow="visible" style="display: block;" viewBox="0 0 20 19.5893" fill="none" xmlns="http://www.w3.org/2000/svg">
<g id="Vector">
<path d="M14.1667 14.6861V19.5855H17.5C18.8807 19.5855 20 18.4887 20 17.1358V9.68785C20.0002 9.26363 19.832 8.85598 19.5308 8.55118L12.4492 1.04933C11.1996 -0.275432 9.09074 -0.35677 7.73879 0.867626C7.67457 0.925807 7.61269 0.986399 7.55336 1.04933L0.48418 8.54873C0.173945 8.85479 -0.000117128 9.26872 5.91339e-08 9.7001V17.1358C5.91339e-08 18.4887 1.1193 19.5855 2.5 19.5855H5.83332V14.6861C5.84891 12.4594 7.68355 10.6411 9.89867 10.5888C12.1879 10.5346 14.1492 12.3839 14.1667 14.6861Z" fill="#B2B2B2"/>
<path d="M10.0016 12.2397C8.62102 12.2397 7.5018 13.3366 7.5018 14.6896V19.5893H12.5015V14.6896C12.5015 13.3366 11.3823 12.2397 10.0016 12.2397Z" fill="#B2B2B2"/>
</g>
</svg>
