<svg preserveAspectRatio="none" width="100%" height="100%" overflow="visible" style="display: block;" viewBox="0 0 24.24 24.24" fill="none" xmlns="http://www.w3.org/2000/svg">
<g id="Vector">
<path d="M24.1941 21.4835C24.1547 21.3546 24.0908 21.2348 24.0059 21.1311C23.9211 21.0273 23.817 20.9416 23.6995 20.8788C23.5821 20.816 23.4537 20.7773 23.3216 20.7651C23.1895 20.7528 23.0563 20.7671 22.9297 20.8072L21.6168 21.2183L20.6765 18.4053C21.6641 17.8414 22.4344 16.9531 22.8615 15.8858C23.2886 14.8185 23.3472 13.6353 23.0276 12.5297L21.1663 6.90275C20.9321 6.13456 20.4142 5.48876 19.7216 5.10119C19.029 4.71362 18.2157 4.61449 17.4528 4.82464L13.5625 5.92844C13.0046 6.08641 12.5036 6.40556 12.1203 6.84725C11.7369 6.40556 11.236 6.08641 10.6781 5.92844L6.7868 4.82464C6.02942 4.61204 5.22055 4.70631 4.53001 5.08766C3.83947 5.46901 3.32097 6.10778 3.08336 6.86986L1.1978 12.5811C0.890797 13.6858 0.959557 14.8637 1.39293 15.9237C1.82629 16.9837 2.59885 17.8636 3.5853 18.4208L2.63191 21.2245L1.31394 20.8072C1.18728 20.7667 1.05403 20.752 0.921785 20.7639C0.789541 20.7758 0.660899 20.8141 0.543203 20.8766C0.425507 20.9392 0.321063 21.0246 0.235833 21.1282C0.150603 21.2318 0.0862575 21.3515 0.0464694 21.4804C0.00668125 21.6093 -0.00776996 21.7449 0.00394086 21.8794C0.0156517 22.014 0.0532952 22.1449 0.114722 22.2647C0.176149 22.3845 0.260156 22.4908 0.361948 22.5775C0.463739 22.6642 0.581321 22.7297 0.70798 22.7702L2.88945 23.4598C2.9046 23.4598 2.91369 23.4773 2.92884 23.4835C2.94399 23.4896 2.98135 23.4896 3.00761 23.4968L5.21029 24.1926C5.46609 24.2736 5.74301 24.2478 5.98014 24.121C6.21727 23.9941 6.39518 23.7767 6.47473 23.5163C6.55428 23.256 6.52896 22.9742 6.40434 22.7329C6.27971 22.4916 6.06599 22.3106 5.81019 22.2296L4.56191 21.8339L5.5062 19.059C5.69348 19.0835 5.88196 19.0972 6.07076 19.1001C7.16267 19.0974 8.22429 18.7345 9.09647 18.066C9.96864 17.3974 10.6044 16.4592 10.9084 15.392L12.1203 11.7373L13.3151 15.3344C13.6095 16.4152 14.2434 17.3683 15.12 18.0483C15.9966 18.7282 17.0677 19.0976 18.1698 19.1001C18.366 19.0982 18.562 19.0845 18.7566 19.059L19.6837 21.8339L18.4274 22.2306C18.1716 22.3116 17.9578 22.4926 17.8332 22.7339C17.7086 22.9753 17.6833 23.2571 17.7628 23.5174C17.8424 23.7777 18.0203 23.9952 18.2574 24.122C18.4945 24.2488 18.7715 24.2746 19.0273 24.1936L21.2239 23.4999C21.2501 23.4927 21.2774 23.4999 21.3037 23.4865C21.3299 23.4732 21.3299 23.467 21.3461 23.4608L23.5296 22.7712C23.6564 22.7312 23.7741 22.6661 23.8762 22.5796C23.9782 22.4932 24.0625 22.3871 24.1242 22.2675C24.1859 22.1479 24.2239 22.0171 24.2359 21.8826C24.2479 21.748 24.2337 21.6124 24.1941 21.4835ZM13.4908 8.40327C13.555 8.28284 13.6425 8.17687 13.7481 8.09174C13.8536 8.00661 13.9749 7.94408 14.1048 7.90789L17.9941 6.80512C18.0809 6.78039 18.1706 6.7676 18.2607 6.76709C18.4828 6.76948 18.6983 6.84465 18.8751 6.98146C19.0519 7.11827 19.1807 7.30943 19.2424 7.5266L20.0109 9.85034H13.6251L13.408 9.19566C13.3692 9.06462 13.3566 8.92704 13.3708 8.79097C13.3851 8.6549 13.4258 8.52309 13.4908 8.40327ZM5.97784 6.76709C6.06827 6.76726 6.15828 6.7797 6.24548 6.80409L10.1358 7.90789C10.3928 7.98003 10.6113 8.15265 10.7438 8.38811C10.8762 8.62358 10.9118 8.90278 10.8427 9.16483L10.6155 9.85034H4.22964L5.00729 7.49679C5.07147 7.28575 5.20027 7.1011 5.37487 6.96983C5.54948 6.83855 5.76075 6.76751 5.97784 6.76709ZM8.9814 14.7835C8.82009 15.3702 8.49161 15.8951 8.03744 16.2919C7.58327 16.6888 7.02375 16.9398 6.42951 17.0134C5.83526 17.0869 5.23292 16.9797 4.6985 16.7052C4.16408 16.4307 3.72155 16.0013 3.42674 15.4711C3.03642 14.7785 2.93044 13.9571 3.13183 13.1854L3.54995 11.9058H9.93479L8.9814 14.7835ZM16.6893 16.6417C16.3354 16.4374 16.0252 16.1631 15.777 15.835C15.5288 15.5069 15.3476 15.1315 15.244 14.7311L14.3058 11.9058H20.6916L21.0956 13.133C21.2568 13.7207 21.243 14.3438 21.056 14.9235C20.869 15.5033 20.5171 16.0135 20.045 16.3896C19.5729 16.7657 19.0017 16.9908 18.4038 17.0364C17.8059 17.0821 17.2082 16.9461 16.6862 16.6458L16.6893 16.6417Z" fill="#B2B2B2"/>
<path d="M15.9812 3.93255C16.0871 3.9924 16.2024 4.02806 16.3206 4.03748C16.4388 4.04689 16.5575 4.02988 16.6698 3.98741C16.7821 3.94494 16.8858 3.87786 16.9749 3.79005C17.064 3.70223 17.1367 3.59543 17.1889 3.47582L18.0855 1.45934C18.1918 1.22002 18.2092 0.943012 18.1338 0.689265C18.0585 0.435518 17.8966 0.225815 17.6838 0.106286C17.471 -0.0132422 17.2247 -0.0328038 16.999 0.0519046C16.7734 0.136613 16.5869 0.318652 16.4806 0.557977L15.584 2.57445C15.5305 2.69288 15.4983 2.82204 15.4893 2.95451C15.4803 3.08698 15.4946 3.22015 15.5315 3.34635C15.5685 3.47256 15.6272 3.58932 15.7044 3.68992C15.7815 3.79052 15.8756 3.87297 15.9812 3.93255Z" fill="#B2B2B2"/>
<path d="M7.04774 3.47922C7.15416 3.71945 7.34109 3.90231 7.56741 3.98757C7.67947 4.02979 7.79784 4.04678 7.91574 4.03757C8.03365 4.02835 8.14878 3.99312 8.25457 3.93388C8.36037 3.87463 8.45475 3.79254 8.53232 3.69229C8.6099 3.59204 8.66915 3.47559 8.7067 3.34959C8.74425 3.22359 8.75936 3.0905 8.75117 2.95794C8.74297 2.82537 8.71164 2.69592 8.65895 2.57697L7.76134 0.558523C7.70865 0.439906 7.6357 0.334119 7.54664 0.247202C7.45759 0.160285 7.35419 0.0939398 7.24233 0.0519554C7.01642 -0.032836 6.76982 -0.0132551 6.55675 0.10639C6.34369 0.226036 6.18162 0.435945 6.10621 0.68994C6.0308 0.943936 6.04821 1.22121 6.15462 1.46077L7.04774 3.47922Z" fill="#B2B2B2"/>
<path d="M12.4567 4.04C12.7245 4.04 12.9814 3.93359 13.1708 3.74418C13.3603 3.55477 13.4667 3.29787 13.4667 3.03V1.01C13.4667 0.742131 13.3603 0.485234 13.1708 0.295822C12.9814 0.10641 12.7245 6.86524e-10 12.4567 6.86523e-10C12.1888 6.86524e-10 11.9319 0.10641 11.7425 0.295822C11.5531 0.485234 11.4467 0.742131 11.4467 1.01V3.03C11.4467 3.29787 11.5531 3.55477 11.7425 3.74418C11.9319 3.93359 12.1888 4.04 12.4567 4.04Z" fill="#B2B2B2"/>
</g>
</svg>
