<svg preserveAspectRatio="none" width="100%" height="100%" overflow="visible" style="display: block;" viewBox="0 0 26.26 24.24" fill="none" xmlns="http://www.w3.org/2000/svg">
<path id="Vector" d="M24.0717 9.00406V6.61091C24.0717 2.96499 21.1273 0 17.5067 0H8.75333C5.13274 0 2.18833 2.96499 2.18833 6.61091V9.00406C0.914723 9.45911 0 10.6832 0 12.12V16.5273C0 18.3254 0.860015 19.9253 2.18833 20.9312V20.9345V23.1382C2.18833 23.7464 2.67852 24.24 3.2825 24.24C3.88648 24.24 4.37667 23.7464 4.37667 23.1382V21.9251C4.73008 21.9978 5.09663 22.0364 5.47083 22.0364H20.7892C21.1634 22.0364 21.5299 21.9978 21.8833 21.9251V23.1382C21.8833 23.7464 22.3735 24.24 22.9775 24.24C23.5815 24.24 24.0717 23.7464 24.0717 23.1382V20.9345V20.9312C25.4 19.9253 26.26 18.3254 26.26 16.5273V12.12C26.26 10.6832 25.3453 9.45911 24.0717 9.00406ZM8.75333 2.20364H17.5067C19.9204 2.20364 21.8833 4.1803 21.8833 6.61091V9.00406C20.6097 9.45911 19.695 10.6832 19.695 12.12V14.3236H6.565V12.12C6.565 10.6832 5.65028 9.45911 4.37667 9.00406V6.61091C4.37667 4.1803 6.3396 2.20364 8.75333 2.20364ZM24.0717 16.5273C24.0717 18.3497 22.5989 19.8327 20.7892 19.8327H5.47083C3.66108 19.8327 2.18833 18.3497 2.18833 16.5273V12.12C2.18833 11.5129 2.67961 11.0182 3.2825 11.0182C3.88539 11.0182 4.37667 11.5129 4.37667 12.12V15.4255C4.37667 16.0337 4.86685 16.5273 5.47083 16.5273H20.7892C21.3931 16.5273 21.8833 16.0337 21.8833 15.4255V12.12C21.8833 11.5129 22.3746 11.0182 22.9775 11.0182C23.5804 11.0182 24.0717 11.5129 24.0717 12.12V16.5273Z" fill="#B2B2B2"/>
</svg>
