<svg preserveAspectRatio="none" width="100%" height="100%" overflow="visible" style="display: block;" viewBox="0 0 18.18 24.24" fill="none" xmlns="http://www.w3.org/2000/svg">
<g id="Vector">
<path d="M9.09 11.8727C10.3047 11.8727 11.4922 11.5245 12.5022 10.8722C13.5123 10.2199 14.2995 9.29278 14.7644 8.20806C15.2292 7.12334 15.3509 5.92974 15.1139 4.77821C14.8769 3.62667 14.2919 2.56892 13.433 1.73871C12.574 0.908502 11.4796 0.343122 10.2882 0.114067C9.09681 -0.114987 7.86188 0.00257213 6.7396 0.451879C5.61731 0.901185 4.65808 1.66206 3.9832 2.63828C3.30832 3.61451 2.94811 4.76223 2.94811 5.93633C2.94973 7.51026 3.59735 9.01927 4.74882 10.1322C5.9003 11.2451 7.46157 11.8711 9.09 11.8727ZM9.09 1.97878C9.89983 1.97878 10.6915 2.21088 11.3648 2.64575C12.0382 3.08061 12.563 3.69869 12.8729 4.42184C13.1828 5.14499 13.2639 5.94072 13.1059 6.70841C12.9479 7.4761 12.558 8.18127 11.9853 8.73474C11.4127 9.28821 10.6831 9.66513 9.88881 9.81784C9.09454 9.97054 8.27125 9.89217 7.52306 9.59263C6.77488 9.29309 6.13539 8.78584 5.68547 8.13502C5.23555 7.48421 4.9954 6.71906 4.9954 5.93633C4.9954 4.88672 5.4268 3.8801 6.19468 3.13792C6.96257 2.39573 8.00404 1.97878 9.09 1.97878Z" fill="#B2B2B2"/>
<path d="M9.09 13.8514C6.68 13.8542 4.36948 14.8401 2.66535 16.5929C0.961225 18.3457 0.00267332 20.7223 0 23.2011C0 23.4767 0.10641 23.7409 0.295822 23.9357C0.485234 24.1305 0.742131 24.24 1.01 24.24C1.27787 24.24 1.53477 24.1305 1.72418 23.9357C1.91359 23.7409 2.02 23.4767 2.02 23.2011C2.02 21.2725 2.76487 19.4228 4.09075 18.0591C5.41664 16.6953 7.21492 15.9291 9.09 15.9291C10.9651 15.9291 12.7634 16.6953 14.0892 18.0591C15.4151 19.4228 16.16 21.2725 16.16 23.2011C16.16 23.4767 16.2664 23.7409 16.4558 23.9357C16.6452 24.1305 16.9021 24.24 17.17 24.24C17.4379 24.24 17.6948 24.1305 17.8842 23.9357C18.0736 23.7409 18.18 23.4767 18.18 23.2011C18.1773 20.7223 17.2188 18.3457 15.5146 16.5929C13.8105 14.8401 11.5 13.8542 9.09 13.8514Z" fill="#B2B2B2"/>
</g>
</svg>
