<svg preserveAspectRatio="none" width="100%" height="100%" overflow="visible" style="display: block;" viewBox="0 0 18 19" fill="none" xmlns="http://www.w3.org/2000/svg">
<g id="All" clip-path="url(#clip0_0_4)">
<path id="Vector" d="M5.24902 0H2.99902C2.20337 0 1.44031 0.33363 0.877703 0.927495C0.315094 1.52136 -0.000976562 2.32681 -0.000976562 3.16667L-0.000976562 5.54167C-0.000976562 6.38152 0.315094 7.18697 0.877703 7.78084C1.44031 8.3747 2.20337 8.70833 2.99902 8.70833H5.24902C6.04467 8.70833 6.80774 8.3747 7.37034 7.78084C7.93295 7.18697 8.24902 6.38152 8.24902 5.54167V3.16667C8.24902 2.32681 7.93295 1.52136 7.37034 0.927495C6.80774 0.33363 6.04467 0 5.24902 0ZM6.74902 5.54167C6.74902 5.96159 6.59099 6.36432 6.30968 6.66125C6.02838 6.95819 5.64685 7.125 5.24902 7.125H2.99902C2.6012 7.125 2.21967 6.95819 1.93836 6.66125C1.65706 6.36432 1.49902 5.96159 1.49902 5.54167V3.16667C1.49902 2.74674 1.65706 2.34401 1.93836 2.04708C2.21967 1.75015 2.6012 1.58333 2.99902 1.58333H5.24902C5.64685 1.58333 6.02838 1.75015 6.30968 2.04708C6.59099 2.34401 6.74902 2.74674 6.74902 3.16667V5.54167Z" fill="#C7C7C7"/>
<path id="Vector_2" d="M15 0H12.75C11.9544 0 11.1913 0.33363 10.6287 0.927495C10.0661 1.52136 9.75 2.32681 9.75 3.16667V5.54167C9.75 6.38152 10.0661 7.18697 10.6287 7.78084C11.1913 8.3747 11.9544 8.70833 12.75 8.70833H15C15.7956 8.70833 16.5587 8.3747 17.1213 7.78084C17.6839 7.18697 18 6.38152 18 5.54167V3.16667C18 2.32681 17.6839 1.52136 17.1213 0.927495C16.5587 0.33363 15.7956 0 15 0ZM16.5 5.54167C16.5 5.96159 16.342 6.36432 16.0607 6.66125C15.7794 6.95819 15.3978 7.125 15 7.125H12.75C12.3522 7.125 11.9706 6.95819 11.6893 6.66125C11.408 6.36432 11.25 5.96159 11.25 5.54167V3.16667C11.25 2.74674 11.408 2.34401 11.6893 2.04708C11.9706 1.75015 12.3522 1.58333 12.75 1.58333H15C15.3978 1.58333 15.7794 1.75015 16.0607 2.04708C16.342 2.34401 16.5 2.74674 16.5 3.16667V5.54167Z" fill="#C7C7C7"/>
<path id="Vector_3" d="M5.24902 10.293H2.99902C2.20337 10.293 1.44031 10.6266 0.877703 11.2205C0.315094 11.8143 -0.000976562 12.6198 -0.000976562 13.4596L-0.000976562 15.8346C-0.000976562 16.6745 0.315094 17.4799 0.877703 18.0738C1.44031 18.6677 2.20337 19.0013 2.99902 19.0013H5.24902C6.04467 19.0013 6.80774 18.6677 7.37034 18.0738C7.93295 17.4799 8.24902 16.6745 8.24902 15.8346V13.4596C8.24902 12.6198 7.93295 11.8143 7.37034 11.2205C6.80774 10.6266 6.04467 10.293 5.24902 10.293ZM6.74902 15.8346C6.74902 16.2546 6.59099 16.6573 6.30968 16.9542C6.02838 17.2512 5.64685 17.418 5.24902 17.418H2.99902C2.6012 17.418 2.21967 17.2512 1.93836 16.9542C1.65706 16.6573 1.49902 16.2546 1.49902 15.8346V13.4596C1.49902 13.0397 1.65706 12.637 1.93836 12.3401C2.21967 12.0431 2.6012 11.8763 2.99902 11.8763H5.24902C5.64685 11.8763 6.02838 12.0431 6.30968 12.3401C6.59099 12.637 6.74902 13.0397 6.74902 13.4596V15.8346Z" fill="#C7C7C7"/>
<path id="Vector_4" d="M15 10.293H12.75C11.9544 10.293 11.1913 10.6266 10.6287 11.2205C10.0661 11.8143 9.75 12.6198 9.75 13.4596V15.8346C9.75 16.6745 10.0661 17.4799 10.6287 18.0738C11.1913 18.6677 11.9544 19.0013 12.75 19.0013H15C15.7956 19.0013 16.5587 18.6677 17.1213 18.0738C17.6839 17.4799 18 16.6745 18 15.8346V13.4596C18 12.6198 17.6839 11.8143 17.1213 11.2205C16.5587 10.6266 15.7956 10.293 15 10.293ZM16.5 15.8346C16.5 16.2546 16.342 16.6573 16.0607 16.9542C15.7794 17.2512 15.3978 17.418 15 17.418H12.75C12.3522 17.418 11.9706 17.2512 11.6893 16.9542C11.408 16.6573 11.25 16.2546 11.25 15.8346V13.4596C11.25 13.0397 11.408 12.637 11.6893 12.3401C11.9706 12.0431 12.3522 11.8763 12.75 11.8763H15C15.3978 11.8763 15.7794 12.0431 16.0607 12.3401C16.342 12.637 16.5 13.0397 16.5 13.4596V15.8346Z" fill="#C7C7C7"/>
</g>
<defs>
<clipPath id="clip0_0_4">
<rect width="18" height="19" fill="white"/>
</clipPath>
</defs>
</svg>
