<svg preserveAspectRatio="none" width="100%" height="100%" overflow="visible" style="display: block;" viewBox="0 0 20 20" fill="none" xmlns="http://www.w3.org/2000/svg">
<g id="bell">
<path id="Vector" d="M15 6.66797C15 5.34189 14.4732 4.07012 13.5355 3.13243C12.5979 2.19475 11.3261 1.66797 10 1.66797C8.67392 1.66797 7.40215 2.19475 6.46447 3.13243C5.52678 4.07012 5 5.34189 5 6.66797C5 12.5013 2.5 14.168 2.5 14.168H17.5C17.5 14.168 15 12.5013 15 6.66797Z" stroke="#831317" stroke-width="2" stroke-linecap="round" stroke-linejoin="round"/>
<path id="Vector_2" d="M11.4424 17.5C11.2959 17.7526 11.0856 17.9622 10.8325 18.1079C10.5795 18.2537 10.2927 18.3304 10.0007 18.3304C9.70871 18.3304 9.42185 18.2537 9.16884 18.1079C8.91583 17.9622 8.70554 17.7526 8.55903 17.5" stroke="#831317" stroke-width="2" stroke-linecap="round" stroke-linejoin="round"/>
<circle id="Ellipse 43" cx="14.074" cy="2.96369" r="2.34259" fill="#831317" stroke="#831317" stroke-width="0.5"/>
</g>
</svg>
