<svg preserveAspectRatio="none" width="100%" height="100%" overflow="visible" style="display: block;" viewBox="0 0 24 24" fill="none" xmlns="http://www.w3.org/2000/svg">
<g id="chevron_forward">
<mask id="mask0_0_14" style="mask-type:alpha" maskUnits="userSpaceOnUse" x="0" y="0" width="24" height="24">
<rect id="Bounding box" width="24" height="24" fill="#D9D9D9"/>
</mask>
<g mask="url(#mask0_0_14)">
<path id="chevron_forward_2" d="M12.6022 12.0008L8.70225 8.10078C8.51891 7.91745 8.42725 7.68411 8.42725 7.40078C8.42725 7.11745 8.51891 6.88411 8.70225 6.70078C8.88558 6.51745 9.11891 6.42578 9.40225 6.42578C9.68558 6.42578 9.91891 6.51745 10.1022 6.70078L14.7022 11.3008C14.8022 11.4008 14.8731 11.5091 14.9147 11.6258C14.9564 11.7424 14.9772 11.8674 14.9772 12.0008C14.9772 12.1341 14.9564 12.2591 14.9147 12.3758C14.8731 12.4924 14.8022 12.6008 14.7022 12.7008L10.1022 17.3008C9.91891 17.4841 9.68558 17.5758 9.40225 17.5758C9.11891 17.5758 8.88558 17.4841 8.70225 17.3008C8.51891 17.1174 8.42725 16.8841 8.42725 16.6008C8.42725 16.3174 8.51891 16.0841 8.70225 15.9008L12.6022 12.0008Z" fill="#831317"/>
</g>
</g>
</svg>
