<svg preserveAspectRatio="none" width="100%" height="100%" overflow="visible" style="display: block;" viewBox="0 0 24 24" fill="none" xmlns="http://www.w3.org/2000/svg">
<g id="shield_locked">
<mask id="mask0_0_24" style="mask-type:alpha" maskUnits="userSpaceOnUse" x="0" y="0" width="24" height="24">
<rect id="Bounding box" width="24" height="24" fill="#D9D9D9"/>
</mask>
<g mask="url(#mask0_0_24)">
<path id="shield_locked_2" d="M4 11.1004V6.37539C4 5.95872 4.12083 5.58372 4.3625 5.25039C4.60417 4.91706 4.91667 4.67539 5.3 4.52539L11.3 2.27539C11.5333 2.19206 11.7667 2.15039 12 2.15039C12.2333 2.15039 12.4667 2.19206 12.7 2.27539L18.7 4.52539C19.0833 4.67539 19.3958 4.91706 19.6375 5.25039C19.8792 5.58372 20 5.95872 20 6.37539V11.1004C20 11.4337 19.8958 11.6837 19.6875 11.8504C19.4792 12.0171 19.25 12.1004 19 12.1004C18.7167 12.1004 18.4792 12.0087 18.2875 11.8254C18.0958 11.6421 18 11.4004 18 11.1004V6.37539L12 4.12539L6 6.37539V11.1004C6 13.1171 6.56667 14.9504 7.7 16.6004C8.83333 18.2504 10.2667 19.3504 12 19.9004C12.1833 19.8337 12.375 19.7546 12.575 19.6629C12.775 19.5712 12.9667 19.4837 13.15 19.4004C13.4 19.2837 13.6583 19.2754 13.925 19.3754C14.1917 19.4754 14.3833 19.6504 14.5 19.9004C14.6167 20.1504 14.625 20.4087 14.525 20.6754C14.425 20.9421 14.25 21.1337 14 21.2504C13.8167 21.3337 13.6125 21.4212 13.3875 21.5129C13.1625 21.6046 12.9583 21.6921 12.775 21.7754C12.675 21.8087 12.5708 21.8379 12.4625 21.8629C12.3542 21.8879 12.2417 21.9004 12.125 21.9004C12.0083 21.9004 11.9 21.8879 11.8 21.8629C11.7 21.8379 11.6 21.8087 11.5 21.7754C9.25 21.0254 7.45417 19.6421 6.1125 17.6254C4.77083 15.6087 4.06667 13.4337 4 11.1004ZM16.85 22.0004C16.6167 22.0004 16.4167 21.9171 16.25 21.7504C16.0833 21.5837 16 21.3837 16 21.1504V17.8504C16 17.6171 16.0833 17.4171 16.25 17.2504C16.4167 17.0837 16.6167 17.0004 16.85 17.0004H17V16.0004C17 15.4504 17.1958 14.9796 17.5875 14.5879C17.9792 14.1962 18.45 14.0004 19 14.0004C19.55 14.0004 20.0208 14.1962 20.4125 14.5879C20.8042 14.9796 21 15.4504 21 16.0004V17.0004H21.15C21.3833 17.0004 21.5833 17.0837 21.75 17.2504C21.9167 17.4171 22 17.6171 22 17.8504V21.1504C22 21.3837 21.9167 21.5837 21.75 21.7504C21.5833 21.9171 21.3833 22.0004 21.15 22.0004H16.85ZM18 17.0004H20V16.0004C20 15.7171 19.9042 15.4796 19.7125 15.2879C19.5208 15.0962 19.2833 15.0004 19 15.0004C18.7167 15.0004 18.4792 15.0962 18.2875 15.2879C18.0958 15.4796 18 15.7171 18 16.0004V17.0004Z" fill="#1C1B1F"/>
</g>
</g>
</svg>
