<svg preserveAspectRatio="none" width="100%" height="100%" overflow="visible" style="display: block;" viewBox="0 0 24 24" fill="none" xmlns="http://www.w3.org/2000/svg">
<g id="bedtime">
<mask id="mask0_0_61" style="mask-type:alpha" maskUnits="userSpaceOnUse" x="0" y="0" width="24" height="24">
<rect id="Bounding box" width="24" height="24" fill="#D9D9D9"/>
</mask>
<g mask="url(#mask0_0_61)">
<path id="bedtime_2" d="M12.1 22.0004C10.7 22.0004 9.3875 21.7337 8.1625 21.2004C6.9375 20.6671 5.87083 19.9462 4.9625 19.0379C4.05417 18.1296 3.33333 17.0629 2.8 15.8379C2.26667 14.6129 2 13.3004 2 11.9004C2 9.76706 2.6 7.83373 3.8 6.1004C5 4.36706 6.60833 3.1504 8.625 2.4504C8.99167 2.31706 9.33333 2.3629 9.65 2.5879C9.96667 2.8129 10.1167 3.11706 10.1 3.5004C10.05 4.91706 10.275 6.26706 10.775 7.5504C11.275 8.83373 12.025 9.9754 13.025 10.9754C14.025 11.9754 15.1667 12.7254 16.45 13.2254C17.7333 13.7254 19.0833 13.9504 20.5 13.9004C20.9333 13.8837 21.2542 14.0296 21.4625 14.3379C21.6708 14.6462 21.7083 14.9921 21.575 15.3754C20.8417 17.3754 19.6125 18.9796 17.8875 20.1879C16.1625 21.3962 14.2333 22.0004 12.1 22.0004ZM12.1 20.0004C13.5667 20.0004 14.925 19.6337 16.175 18.9004C17.425 18.1671 18.4083 17.1587 19.125 15.8754C17.6917 15.7421 16.3333 15.3796 15.05 14.7879C13.7667 14.1962 12.6167 13.3921 11.6 12.3754C10.5833 11.3587 9.775 10.2087 9.175 8.9254C8.575 7.64206 8.21667 6.28373 8.1 4.8504C6.81667 5.56706 5.8125 6.55456 5.0875 7.8129C4.3625 9.07123 4 10.4337 4 11.9004C4 14.1504 4.7875 16.0629 6.3625 17.6379C7.9375 19.2129 9.85 20.0004 12.1 20.0004Z" fill="#1C1B1F"/>
</g>
</g>
</svg>
