<svg preserveAspectRatio="none" width="100%" height="100%" overflow="visible" style="display: block;" viewBox="0 0 24 24" fill="none" xmlns="http://www.w3.org/2000/svg">
<g id="productivity">
<mask id="mask0_0_30" style="mask-type:alpha" maskUnits="userSpaceOnUse" x="0" y="0" width="24" height="24">
<rect id="Bounding box" width="24" height="24" fill="#D9D9D9"/>
</mask>
<g mask="url(#mask0_0_30)">
<path id="productivity_2" d="M1 18V15.2C1 14.6333 1.14583 14.1125 1.4375 13.6375C1.72917 13.1625 2.11667 12.8 2.6 12.55C3.63333 12.0333 4.68333 11.6458 5.75 11.3875C6.81667 11.1292 7.9 11 9 11C9.75 11 10.4917 11.0583 11.225 11.175C11.9583 11.2917 12.6917 11.475 13.425 11.725C13.1417 11.9583 12.8833 12.2125 12.65 12.4875C12.4167 12.7625 12.2083 13.0583 12.025 13.375C11.525 13.2417 11.025 13.1458 10.525 13.0875C10.025 13.0292 9.51667 13 9 13C8.06667 13 7.14167 13.1125 6.225 13.3375C5.30833 13.5625 4.4 13.9 3.5 14.35C3.35 14.4333 3.22917 14.55 3.1375 14.7C3.04583 14.85 3 15.0167 3 15.2V16H11.075C11.0417 16.3333 11.025 16.6667 11.025 17C11.025 17.3333 11.0417 17.6667 11.075 18H1ZM6.175 8.825C5.39167 8.04167 5 7.1 5 6C5 4.9 5.39167 3.95833 6.175 3.175C6.95833 2.39167 7.9 2 9 2C10.1 2 11.0417 2.39167 11.825 3.175C12.6083 3.95833 13 4.9 13 6C13 7.1 12.6083 8.04167 11.825 8.825C11.0417 9.60833 10.1 10 9 10C7.9 10 6.95833 9.60833 6.175 8.825ZM10.4125 7.4125C10.8042 7.02083 11 6.55 11 6C11 5.45 10.8042 4.97917 10.4125 4.5875C10.0208 4.19583 9.55 4 9 4C8.45 4 7.97917 4.19583 7.5875 4.5875C7.19583 4.97917 7 5.45 7 6C7 6.55 7.19583 7.02083 7.5875 7.4125C7.97917 7.80417 8.45 8 9 8C9.55 8 10.0208 7.80417 10.4125 7.4125ZM17.825 8.825C17.0417 9.60833 16.1 10 15 10C14.8167 10 14.5833 9.97917 14.3 9.9375C14.0167 9.89583 13.7833 9.85 13.6 9.8C14.05 9.26667 14.3958 8.675 14.6375 8.025C14.8792 7.375 15 6.7 15 6C15 5.3 14.8792 4.625 14.6375 3.975C14.3958 3.325 14.05 2.73333 13.6 2.2C13.8333 2.11667 14.0667 2.0625 14.3 2.0375C14.5333 2.0125 14.7667 2 15 2C16.1 2 17.0417 2.39167 17.825 3.175C18.6083 3.95833 19 4.9 19 6C19 7.1 18.6083 8.04167 17.825 8.825ZM18 22C16.6167 22 15.4375 21.5125 14.4625 20.5375C13.4875 19.5625 13 18.3833 13 17C13 15.6 13.4875 14.4167 14.4625 13.45C15.4375 12.4833 16.6167 12 18 12C19.4 12 20.5833 12.4833 21.55 13.45C22.5167 14.4167 23 15.6 23 17C23 18.3833 22.5167 19.5625 21.55 20.5375C20.5833 21.5125 19.4 22 18 22ZM17.3 19.25L20.825 15.7L20.125 15L17.3 17.825L15.875 16.4L15.175 17.125L17.3 19.25Z" fill="#1C1B1F"/>
</g>
</g>
</svg>
