<svg preserveAspectRatio="none" width="100%" height="100%" overflow="visible" style="display: block;" viewBox="0 0 24 24" fill="none" xmlns="http://www.w3.org/2000/svg">
<g id="chat">
<mask id="mask0_0_33" style="mask-type:alpha" maskUnits="userSpaceOnUse" x="0" y="0" width="24" height="24">
<rect id="Bounding box" width="24" height="24" fill="#D9D9D9"/>
</mask>
<g mask="url(#mask0_0_33)">
<path id="chat_2" d="M6 19L3.7 21.3C3.38333 21.6167 3.02083 21.6875 2.6125 21.5125C2.20417 21.3375 2 21.025 2 20.575V5C2 4.45 2.19583 3.97917 2.5875 3.5875C2.97917 3.19583 3.45 3 4 3H20C20.55 3 21.0208 3.19583 21.4125 3.5875C21.8042 3.97917 22 4.45 22 5V17C22 17.55 21.8042 18.0208 21.4125 18.4125C21.0208 18.8042 20.55 19 20 19H6ZM5.15 17H20V5H4V18.125L5.15 17ZM7 15H13C13.2833 15 13.5208 14.9042 13.7125 14.7125C13.9042 14.5208 14 14.2833 14 14C14 13.7167 13.9042 13.4792 13.7125 13.2875C13.5208 13.0958 13.2833 13 13 13H7C6.71667 13 6.47917 13.0958 6.2875 13.2875C6.09583 13.4792 6 13.7167 6 14C6 14.2833 6.09583 14.5208 6.2875 14.7125C6.47917 14.9042 6.71667 15 7 15ZM7 12H17C17.2833 12 17.5208 11.9042 17.7125 11.7125C17.9042 11.5208 18 11.2833 18 11C18 10.7167 17.9042 10.4792 17.7125 10.2875C17.5208 10.0958 17.2833 10 17 10H7C6.71667 10 6.47917 10.0958 6.2875 10.2875C6.09583 10.4792 6 10.7167 6 11C6 11.2833 6.09583 11.5208 6.2875 11.7125C6.47917 11.9042 6.71667 12 7 12ZM7 9H17C17.2833 9 17.5208 8.90417 17.7125 8.7125C17.9042 8.52083 18 8.28333 18 8C18 7.71667 17.9042 7.47917 17.7125 7.2875C17.5208 7.09583 17.2833 7 17 7H7C6.71667 7 6.47917 7.09583 6.2875 7.2875C6.09583 7.47917 6 7.71667 6 8C6 8.28333 6.09583 8.52083 6.2875 8.7125C6.47917 8.90417 6.71667 9 7 9Z" fill="#1C1B1F"/>
</g>
</g>
</svg>
