<svg preserveAspectRatio="none" width="100%" height="100%" overflow="visible" style="display: block;" viewBox="0 0 24 24" fill="none" xmlns="http://www.w3.org/2000/svg">
<g id="account_circle_off">
<mask id="mask0_0_18" style="mask-type:alpha" maskUnits="userSpaceOnUse" x="0" y="0" width="24" height="24">
<rect id="Bounding box" width="24" height="24" fill="#D9D9D9"/>
</mask>
<g mask="url(#mask0_0_18)">
<path id="account_circle_off_2" d="M14.4489 19.6125C15.2323 19.3542 15.9656 18.9833 16.6489 18.5C15.9656 18.0167 15.2323 17.6458 14.4489 17.3875C13.6656 17.1292 12.8489 17 11.9989 17C11.1489 17 10.3323 17.1292 9.54894 17.3875C8.7656 17.6458 8.03227 18.0167 7.34894 18.5C8.03227 18.9833 8.7656 19.3542 9.54894 19.6125C10.3323 19.8708 11.1489 20 11.9989 20C12.8489 20 13.6656 19.8708 14.4489 19.6125ZM14.4739 7.025C14.9906 7.54167 15.3156 8.15833 15.4489 8.875C15.5823 9.59167 15.4989 10.2833 15.1989 10.95C15.0656 11.2333 14.8698 11.4292 14.6114 11.5375C14.3531 11.6458 14.0906 11.6333 13.8239 11.5C13.5739 11.3833 13.3989 11.1958 13.2989 10.9375C13.1989 10.6792 13.2156 10.425 13.3489 10.175C13.4823 9.89167 13.5239 9.59167 13.4739 9.275C13.4239 8.95833 13.2823 8.68333 13.0489 8.45C12.8323 8.23333 12.5781 8.09583 12.2864 8.0375C11.9948 7.97917 11.7073 8.00833 11.4239 8.125C11.1906 8.20833 10.9573 8.19583 10.7239 8.0875C10.4906 7.97917 10.3323 7.79167 10.2489 7.525C10.1489 7.24167 10.1698 6.97083 10.3114 6.7125C10.4531 6.45417 10.6656 6.26667 10.9489 6.15C11.5323 5.91667 12.1448 5.88333 12.7864 6.05C13.4281 6.21667 13.9906 6.54167 14.4739 7.025ZM11.9989 22C10.6156 22 9.3156 21.7375 8.09894 21.2125C6.88227 20.6875 5.82394 19.975 4.92394 19.075C4.02394 18.175 3.31144 17.1167 2.78644 15.9C2.26144 14.6833 1.99894 13.3833 1.99894 12C1.99894 11.0167 2.13644 10.0583 2.41144 9.125C2.68644 8.19167 3.0906 7.30833 3.62394 6.475L1.37394 4.2C1.17394 4 1.0781 3.7625 1.08644 3.4875C1.09477 3.2125 1.19894 2.975 1.39894 2.775C1.59894 2.575 1.83644 2.475 2.11144 2.475C2.38644 2.475 2.62394 2.575 2.82394 2.775L21.1989 21.175C21.3989 21.375 21.4948 21.6125 21.4864 21.8875C21.4781 22.1625 21.3739 22.4 21.1739 22.6C20.9739 22.8 20.7406 22.9 20.4739 22.9C20.2073 22.9 19.9739 22.8 19.7739 22.6L5.09894 7.95C4.73227 8.56667 4.45727 9.21667 4.27394 9.9C4.0906 10.5833 3.99894 11.2833 3.99894 12C3.99894 12.95 4.15727 13.8583 4.47394 14.725C4.7906 15.5917 5.24894 16.3833 5.84894 17.1C6.74894 16.4167 7.71977 15.8958 8.76144 15.5375C9.8031 15.1792 10.8823 15 11.9989 15C12.6323 15 13.2656 15.0667 13.8989 15.2C14.5323 15.3333 15.1489 15.5167 15.7489 15.75L19.0739 19.075C18.1239 20.025 17.0406 20.75 15.8239 21.25C14.6073 21.75 13.3323 22 11.9989 22ZM7.84894 2.9C8.49894 2.6 9.17394 2.375 9.87394 2.225C10.5739 2.075 11.2823 2 11.9989 2C13.3323 2 14.6073 2.25 15.8239 2.75C17.0406 3.25 18.1239 3.975 19.0739 4.925C20.0239 5.875 20.7489 6.95833 21.2489 8.175C21.7489 9.39167 21.9989 10.6667 21.9989 12C21.9989 12.7167 21.9239 13.425 21.7739 14.125C21.6239 14.825 21.3989 15.5 21.0989 16.15C20.9823 16.4 20.7906 16.5625 20.5239 16.6375C20.2573 16.7125 20.0073 16.6833 19.7739 16.55C19.5406 16.4167 19.3823 16.2167 19.2989 15.95C19.2156 15.6833 19.2323 15.4167 19.3489 15.15C19.5656 14.65 19.7281 14.1333 19.8364 13.6C19.9448 13.0667 19.9989 12.5333 19.9989 12C19.9989 9.76667 19.2239 7.875 17.6739 6.325C16.1239 4.775 14.2323 4 11.9989 4C11.4656 4 10.9323 4.05417 10.3989 4.1625C9.8656 4.27083 9.34894 4.43333 8.84894 4.65C8.58227 4.76667 8.3156 4.78333 8.04894 4.7C7.78227 4.61667 7.58227 4.45833 7.44894 4.225C7.3156 3.99167 7.28644 3.74167 7.36144 3.475C7.43644 3.20833 7.59894 3.01667 7.84894 2.9Z" fill="#1C1B1F"/>
</g>
</g>
</svg>
