<svg width="28" height="28" viewBox="0 0 28 28" fill="none" xmlns="http://www.w3.org/2000/svg">
  <g transform="translate(0 2)">
    <path d="M11.42 3.42c.15-.83.87-1.42 1.71-1.42h1.74c.84 0 1.56.59 1.71 1.42l.27 1.47c.65.25 1.26.6 1.8 1.04l1.41-.5c.79-.28 1.67.05 2.09.78l.87 1.51c.42.73.27 1.65-.37 2.2l-1.14.97c.05.36.08.73.08 1.11s-.03.75-.08 1.11l1.14.97c.64.55.79 1.47.37 2.2l-.87 1.51c-.42.73-1.3 1.06-2.09.78l-1.41-.5c-.54.44-1.15.79-1.8 1.04l-.27 1.47c-.15.83-.87 1.42-1.71 1.42h-1.74c-.84 0-1.56-.59-1.71-1.42l-.27-1.47a8.1 8.1 0 0 1-1.8-1.04l-1.41.5c-.79.28-1.67-.05-2.09-.78l-.87-1.51c-.42-.73-.27-1.65.37-2.2l1.14-.97A7.6 7.6 0 0 1 6.42 12c0-.38.03-.75.08-1.11l-1.14-.97a1.75 1.75 0 0 1-.37-2.2l.87-1.51c.42-.73 1.3-1.06 2.09-.78l1.41.5c.54-.44 1.15-.79 1.8-1.04l.27-1.47Z" stroke="#0D0D0D" stroke-width="1.9" stroke-linecap="round" stroke-linejoin="round"/>
    <circle cx="14" cy="12" r="3.25" stroke="#0D0D0D" stroke-width="1.9"/>
  </g>
</svg>
