<svg preserveAspectRatio="none" width="100%" height="100%" overflow="visible" style="display: block;" viewBox="0 0 24 24" fill="none" xmlns="http://www.w3.org/2000/svg">
<g id="person_off">
<mask id="mask0_0_44" style="mask-type:alpha" maskUnits="userSpaceOnUse" x="0" y="0" width="24" height="24">
<rect id="Bounding box" width="24" height="24" fill="#D9D9D9"/>
</mask>
<g mask="url(#mask0_0_44)">
<path id="person_off_2" d="M19.0732 21.9002L17.1482 20.0002H5.99816C5.44816 20.0002 4.97732 19.8044 4.58566 19.4127C4.19399 19.021 3.99816 18.5502 3.99816 18.0002V17.2002C3.99816 16.6335 4.14399 16.1127 4.43566 15.6377C4.72732 15.1627 5.11482 14.8002 5.59816 14.5502C6.34816 14.1669 7.11066 13.8585 7.88566 13.6252C8.66066 13.3919 9.44816 13.2169 10.2482 13.1002L2.07316 4.9252C1.87316 4.7252 1.77732 4.4877 1.78566 4.2127C1.79399 3.9377 1.89816 3.7002 2.09816 3.5002C2.29816 3.3002 2.53566 3.2002 2.81066 3.2002C3.08566 3.2002 3.32316 3.3002 3.52316 3.5002L20.4982 20.5002C20.6982 20.7002 20.7982 20.9335 20.7982 21.2002C20.7982 21.4669 20.6982 21.7002 20.4982 21.9002C20.2982 22.1002 20.0607 22.2002 19.7857 22.2002C19.5107 22.2002 19.2732 22.1002 19.0732 21.9002ZM5.99816 18.0002H15.1482L12.1482 15.0002H11.9982C11.0648 15.0002 10.1398 15.1127 9.22316 15.3377C8.30649 15.5627 7.39816 15.9002 6.49816 16.3502C6.34816 16.4335 6.22732 16.5502 6.13566 16.7002C6.04399 16.8502 5.99816 17.0169 5.99816 17.2002V18.0002ZM18.3982 14.5502C18.8815 14.7835 19.2648 15.1377 19.5482 15.6127C19.8315 16.0877 19.9815 16.6002 19.9982 17.1502L16.6482 13.8002C16.9482 13.9169 17.244 14.0335 17.5357 14.1502C17.8273 14.2669 18.1148 14.4002 18.3982 14.5502ZM14.1982 11.3502L12.7232 9.8752C13.1065 9.7252 13.4148 9.47936 13.6482 9.1377C13.8815 8.79603 13.9982 8.41686 13.9982 8.0002C13.9982 7.4502 13.8023 6.97936 13.4107 6.5877C13.019 6.19603 12.5482 6.0002 11.9982 6.0002C11.5815 6.0002 11.2023 6.11686 10.8607 6.3502C10.519 6.58353 10.2732 6.89186 10.1232 7.2752L8.64816 5.8002C9.03149 5.23353 9.51482 4.79186 10.0982 4.4752C10.6815 4.15853 11.3148 4.0002 11.9982 4.0002C13.0982 4.0002 14.0398 4.39186 14.8232 5.1752C15.6065 5.95853 15.9982 6.9002 15.9982 8.0002C15.9982 8.68353 15.8398 9.31686 15.5232 9.9002C15.2065 10.4835 14.7648 10.9669 14.1982 11.3502Z" fill="#1C1B1F"/>
</g>
</g>
</svg>
