<svg preserveAspectRatio="none" width="100%" height="100%" overflow="visible" style="display: block;" viewBox="0 0 24 24" fill="none" xmlns="http://www.w3.org/2000/svg">
<g id="text_increase">
<mask id="mask0_0_21" style="mask-type:alpha" maskUnits="userSpaceOnUse" x="0" y="0" width="24" height="24">
<rect id="Bounding box" width="24" height="24" fill="#D9D9D9"/>
</mask>
<g mask="url(#mask0_0_21)">
<path id="text_increase_2" d="M4.67442 15.425L3.64942 18.275C3.56609 18.5083 3.43275 18.6875 3.24942 18.8125C3.06609 18.9375 2.85775 19 2.62442 19C2.24109 19 1.93692 18.8375 1.71192 18.5125C1.48692 18.1875 1.44109 17.8417 1.57442 17.475L5.97442 5.75C6.05775 5.51667 6.19942 5.33333 6.39942 5.2C6.59942 5.06667 6.81609 5 7.04942 5H7.94942C8.19942 5 8.42025 5.06667 8.61192 5.2C8.80359 5.33333 8.94109 5.51667 9.02442 5.75L13.4494 17.5C13.5828 17.8667 13.5369 18.2083 13.3119 18.525C13.0869 18.8417 12.7828 19 12.3994 19C12.1661 19 11.9494 18.9333 11.7494 18.8C11.5494 18.6667 11.4078 18.4833 11.3244 18.25L10.3244 15.425H4.67442ZM5.39942 13.4H9.59942L7.54942 7.6H7.44942L5.39942 13.4ZM17.9994 13H15.9994C15.7161 13 15.4786 12.9042 15.2869 12.7125C15.0953 12.5208 14.9994 12.2833 14.9994 12C14.9994 11.7167 15.0953 11.4792 15.2869 11.2875C15.4786 11.0958 15.7161 11 15.9994 11H17.9994V9C17.9994 8.71667 18.0953 8.47917 18.2869 8.2875C18.4786 8.09583 18.7161 8 18.9994 8C19.2828 8 19.5203 8.09583 19.7119 8.2875C19.9036 8.47917 19.9994 8.71667 19.9994 9V11H21.9994C22.2828 11 22.5203 11.0958 22.7119 11.2875C22.9036 11.4792 22.9994 11.7167 22.9994 12C22.9994 12.2833 22.9036 12.5208 22.7119 12.7125C22.5203 12.9042 22.2828 13 21.9994 13H19.9994V15C19.9994 15.2833 19.9036 15.5208 19.7119 15.7125C19.5203 15.9042 19.2828 16 18.9994 16C18.7161 16 18.4786 15.9042 18.2869 15.7125C18.0953 15.5208 17.9994 15.2833 17.9994 15V13Z" fill="#1C1B1F"/>
</g>
</g>
</svg>
