<svg preserveAspectRatio="none" width="100%" height="100%" overflow="visible" style="display: block;" viewBox="0 0 16 16" fill="none" xmlns="http://www.w3.org/2000/svg">
<g id="Frame 288">
<path id="arrow_forward" d="M12.5072 9.06206H1.02729C0.736223 9.06206 0.492242 8.96094 0.295345 8.75869C0.0984484 8.55644 0 8.30583 0 8.00686C0 7.70788 0.0984484 7.45727 0.295345 7.25503C0.492242 7.05278 0.736223 6.95166 1.02729 6.95166H12.5072L7.47352 1.78118C7.26806 1.57014 7.16961 1.32392 7.17817 1.04254C7.18673 0.761151 7.29374 0.514938 7.4992 0.303898C7.70466 0.110444 7.94436 0.00932093 8.2183 0.0005276C8.49224 -0.00826573 8.73194 0.0928576 8.9374 0.303898L15.7175 7.26822C15.8202 7.37374 15.893 7.48805 15.9358 7.61116C15.9786 7.73426 16 7.86616 16 8.00686C16 8.14755 15.9786 8.27945 15.9358 8.40256C15.893 8.52566 15.8202 8.63998 15.7175 8.7455L8.9374 15.7098C8.74906 15.9033 8.51364 16 8.23114 16C7.94864 16 7.70466 15.9033 7.4992 15.7098C7.29374 15.4988 7.19101 15.2482 7.19101 14.958C7.19101 14.6678 7.29374 14.4172 7.4992 14.2062L12.5072 9.06206Z" fill="var(--fill-0, #831317)"/>
</g>
</svg>
