<svg preserveAspectRatio="none" width="100%" height="100%" overflow="visible" style="display: block;" viewBox="0 0 24 24" fill="none" xmlns="http://www.w3.org/2000/svg">
<g id="chevron_forward">
<mask id="mask0_0_17" style="mask-type:alpha" maskUnits="userSpaceOnUse" x="0" y="0" width="24" height="24">
<rect id="Bounding box" width="24" height="24" fill="#D9D9D9"/>
</mask>
<g mask="url(#mask0_0_17)">
<path id="chevron_forward_2" d="M12.6027 12.0008L8.70273 8.10078C8.5194 7.91745 8.42773 7.68411 8.42773 7.40078C8.42773 7.11745 8.5194 6.88411 8.70273 6.70078C8.88607 6.51745 9.1194 6.42578 9.40273 6.42578C9.68607 6.42578 9.9194 6.51745 10.1027 6.70078L14.7027 11.3008C14.8027 11.4008 14.8736 11.5091 14.9152 11.6258C14.9569 11.7424 14.9777 11.8674 14.9777 12.0008C14.9777 12.1341 14.9569 12.2591 14.9152 12.3758C14.8736 12.4924 14.8027 12.6008 14.7027 12.7008L10.1027 17.3008C9.9194 17.4841 9.68607 17.5758 9.40273 17.5758C9.1194 17.5758 8.88607 17.4841 8.70273 17.3008C8.5194 17.1174 8.42773 16.8841 8.42773 16.6008C8.42773 16.3174 8.5194 16.0841 8.70273 15.9008L12.6027 12.0008Z" fill="white"/>
</g>
</g>
</svg>
