<svg preserveAspectRatio="none" width="100%" height="100%" overflow="visible" style="display: block;" viewBox="0 0 443.524 416" fill="none" xmlns="http://www.w3.org/2000/svg">
<path id="Vector 37" d="M106.707 5.80241C109.874 5.92422 117.086 6.09476 120.594 5.80241L146.174 8.7259L161.888 11.2839C161.888 16.6437 192.95 8.06811 192.95 11.2839C192.95 14.4998 235.341 -3.69924 235.341 0.68599L326.334 13.4762L348.26 52.2124L350.088 77.0624L392.113 89.4868C394.184 92.8976 359.387 102.374 361.416 102.643C526.959 124.568 358.493 112.144 358.493 115.433C513.438 141.744 427.56 189.25 330.354 161.112C328.388 160.543 329.258 178.897 332.912 187.058L346.433 208.254L277.366 193.636V208.254V220.313V236.758C278.462 242.97 280.655 255.907 280.655 257.953C280.655 260 278.462 264.896 277.366 267.089L269.326 271.474L252.882 280.61C249.349 288.772 241.992 305.533 240.822 307.287C239.653 309.041 226.448 324.097 222.916 328.847V409.609C222.916 424.104 42.3906 408.951 42.3906 412.167C42.3906 415.807 18.1199 388.884 15.4325 385.934C15.4008 385.91 15.3727 385.884 15.3483 385.856C15.1066 385.58 15.152 385.626 15.4325 385.934C18.7247 388.467 61.0278 372.334 61.0278 372.334C61.0278 372.334 71.26 352.601 61.0278 355.159V334.694L57.7389 317.519L45.3141 302.901V289.746L31.7929 276.225L24.8496 269.647L17.1755 273.667L11.3285 267.089L4.38523 246.99L0 157.824L4.38523 119.818L21.9262 107.028L31.7929 94.6029L63.5858 60.9828L73.4526 63.9067H85.8774L88.8009 56.9634V43.4423L92.0899 23.3433L106.707 5.80241Z" fill="#D9D9D9"/>
</svg>
